<?xml version="1.0" encoding="UTF-8" standalone="no"?>
<svg
   xmlns:dc="http://purl.org/dc/elements/1.1/"
   xmlns:cc="http://creativecommons.org/ns#"
   xmlns:rdf="http://www.w3.org/1999/02/22-rdf-syntax-ns#"
   xmlns:svg="http://www.w3.org/2000/svg"
   xmlns="http://www.w3.org/2000/svg"
   xmlns:sodipodi="http://sodipodi.sourceforge.net/DTD/sodipodi-0.dtd"
   xmlns:inkscape="http://www.inkscape.org/namespaces/inkscape"
   width="247.5"
   height="135"
   class="viz code-frequency"
   version="1.1"
   id="svg2"
   inkscape:version="0.48.5 r10040"
   sodipodi:docname="viz code-frequency.svg">
  <metadata
     id="metadata106">
    <rdf:RDF>
      <cc:Work
         rdf:about="">
        <dc:format>image/svg+xml</dc:format>
        <dc:type
           rdf:resource="http://purl.org/dc/dcmitype/StillImage" />
      </cc:Work>
    </rdf:RDF>
  </metadata>
  <defs
     id="defs104">
    <clipPath
       clipPathUnits="userSpaceOnUse"
       id="clipPath3855">
      <rect
         style="color:#000000;fill:#000000;fill-opacity:1;fill-rule:nonzero;stroke:none;stroke-width:0.88582677;marker:none;visibility:visible;display:inline;overflow:visible;enable-background:accumulate"
         id="rect3857"
         width="151.39082"
         height="84.809082"
         x="184.88689"
         y="213.87115" />
    </clipPath>
  </defs>
  <sodipodi:namedview
     pagecolor="#ffffff"
     bordercolor="#666666"
     borderopacity="1"
     objecttolerance="10"
     gridtolerance="10"
     guidetolerance="10"
     inkscape:pageopacity="0"
     inkscape:pageshadow="2"
     inkscape:window-width="1270"
     inkscape:window-height="769"
     id="namedview102"
     showgrid="false"
     units="in"
     inkscape:zoom="1.6693878"
     inkscape:cx="143.13645"
     inkscape:cy="39.209835"
     inkscape:window-x="3"
     inkscape:window-y="227"
     inkscape:window-maximized="0"
     inkscape:current-layer="svg2" />
  <g
     transform="matrix(1.6317649,0,0,1.6317649,-301.45905,-350.68169)"
     id="g4"
     clip-path="url(#clipPath3855)">
    <g
       class="x axis"
       transform="translate(0,470)"
       style="font-size:10px;line-height:14px;fill:#aaaaaa"
       id="g6">
      <g
         class="tick"
         transform="translate(139.4966,0)"
         style="font-size:10px;line-height:14px;fill:#aaaaaa"
         id="g8">
        <line
           y2="6"
           x2="0"
           style="font-size:10px;line-height:14px;fill:#aaaaaa;stroke:#eeeeee;stroke-width:0.61283344"
           id="line10"
           x1="0"
           y1="0" />
        <text
           y="9"
           x="0"
           dy="1.5862176e-37"
           style="font-size:10px;line-height:14px;text-anchor:middle;fill:#aaaaaa;display:block"
           id="text12">01/11</text>
      </g>
      <g
         class="tick"
         transform="translate(288.2477,0)"
         style="font-size:10px;line-height:14px;fill:#aaaaaa"
         id="g14">
        <line
           y2="6"
           x2="0"
           style="font-size:10px;line-height:14px;fill:#aaaaaa;stroke:#eeeeee;stroke-width:0.61283344"
           id="line16"
           x1="0"
           y1="0" />
        <text
           y="9"
           x="0"
           dy="1.5862176e-37"
           style="font-size:10px;line-height:14px;text-anchor:middle;fill:#aaaaaa;display:block"
           id="text18">01/12</text>
      </g>
      <g
         class="tick"
         transform="translate(437.40633,0)"
         style="font-size:10px;line-height:14px;fill:#aaaaaa"
         id="g20">
        <line
           y2="6"
           x2="0"
           style="font-size:10px;line-height:14px;fill:#aaaaaa;stroke:#eeeeee;stroke-width:0.61283344"
           id="line22"
           x1="0"
           y1="0" />
        <text
           y="9"
           x="0"
           dy="1.5862176e-37"
           style="font-size:10px;line-height:14px;text-anchor:middle;fill:#aaaaaa;display:block"
           id="text24">01/13</text>
      </g>
      <g
         class="tick"
         transform="translate(586.15743,0)"
         style="font-size:10px;line-height:14px;fill:#aaaaaa"
         id="g26">
        <line
           y2="6"
           x2="0"
           style="font-size:10px;line-height:14px;fill:#aaaaaa;stroke:#eeeeee;stroke-width:0.61283344"
           id="line28"
           x1="0"
           y1="0" />
        <text
           y="9"
           x="0"
           dy="1.5862176e-37"
           style="font-size:10px;line-height:14px;text-anchor:middle;fill:#aaaaaa;display:block"
           id="text30">01/14</text>
      </g>
      <g
         class="tick"
         transform="translate(734.90852,0)"
         style="font-size:10px;line-height:14px;fill:#aaaaaa"
         id="g32">
        <line
           y2="6"
           x2="0"
           style="font-size:10px;line-height:14px;fill:#aaaaaa;stroke:#eeeeee;stroke-width:0.61283344"
           id="line34"
           x1="0"
           y1="0" />
        <text
           y="9"
           x="0"
           dy="1.5862176e-37"
           style="font-size:10px;line-height:14px;text-anchor:middle;fill:#aaaaaa;display:block"
           id="text36">01/15</text>
      </g>
      <g
         class="tick"
         transform="translate(883.65962,0)"
         style="font-size:10px;line-height:14px;fill:#aaaaaa"
         id="g38">
        <line
           y2="6"
           x2="0"
           style="font-size:10px;line-height:14px;fill:#aaaaaa;stroke:#eeeeee;stroke-width:0.61283344"
           id="line40"
           x1="0"
           y1="0" />
        <text
           y="9"
           x="0"
           dy="1.5862176e-37"
           style="font-size:10px;line-height:14px;text-anchor:middle;fill:#aaaaaa;display:block"
           id="text42">01/16</text>
      </g>
      <path
         class="domain"
         d="M 0,6 V 0 h 930 v 6"
         style="font-size:10px;line-height:14px;fill:#aaaaaa;display:none"
         id="path44"
         inkscape:connector-curvature="0" />
    </g>
    <g
       class="y axis"
       transform="translate(980,0)"
       style="font-size:10px;line-height:14px;fill:#aaaaaa"
       id="g46">
      <g
         class="tick"
         transform="translate(0,450.83977)"
         style="font-size:10px;line-height:14px;fill:#aaaaaa"
         id="g48">
        <line
           x2="-980"
           y2="0"
           style="font-size:10px;line-height:14px;fill:#aaaaaa;stroke:#eeeeee;stroke-width:0.61283344"
           id="line50"
           x1="0"
           y1="0" />
        <text
           x="-985"
           y="0"
           dy="1.5862176e-37"
           style="font-size:10px;line-height:14px;text-anchor:end;fill:#aaaaaa;display:block"
           id="text52">300k</text>
      </g>
      <g
         class="tick"
         transform="translate(0,388.28187)"
         style="font-size:10px;line-height:14px;fill:#aaaaaa"
         id="g54">
        <line
           x2="-980"
           y2="0"
           style="font-size:10px;line-height:14px;fill:#aaaaaa;stroke:#eeeeee;stroke-width:0.61283344"
           id="line56"
           x1="0"
           y1="0" />
        <text
           x="-985"
           y="0"
           dy="1.5862176e-37"
           style="font-size:10px;line-height:14px;text-anchor:end;fill:#aaaaaa;display:block"
           id="text58">200k</text>
      </g>
      <g
         class="tick"
         transform="translate(202.46944,325.72397)"
         style="font-size:10px;line-height:14px;fill:#aaaaaa"
         id="g60">
        <line
           x2="-980"
           y2="0"
           style="font-size:10px;line-height:14px;fill:#aaaaaa;stroke:#eeeeee;stroke-width:0.61283344"
           id="line62"
           x1="0"
           y1="0" />
        <text
           x="-985"
           y="0"
           dy="1.5862176e-37"
           style="font-size:10px;line-height:14px;text-anchor:end;fill:#aaaaaa;display:block"
           id="text64">100k</text>
      </g>
      <g
         class="tick"
         transform="translate(202.46944,263.16607)"
         style="font-size:10px;line-height:14px;fill:#aaaaaa"
         id="g66">
        <line
           x2="-980"
           y2="0"
           style="font-size:10px;line-height:14px;fill:#aaaaaa;stroke:#eeeeee;stroke-width:0.61283344"
           id="line68"
           x1="0"
           y1="0" />
        <text
           x="-985"
           y="0"
           dy="1.5862176e-37"
           style="font-size:10px;line-height:14px;text-anchor:end;fill:#aaaaaa;display:block"
           id="text70">0</text>
      </g>
      <g
         class="tick"
         transform="translate(202.46944,200.60817)"
         style="font-size:10px;line-height:14px;fill:#aaaaaa"
         id="g72">
        <line
           x2="-980"
           y2="0"
           style="font-size:10px;line-height:14px;fill:#aaaaaa;stroke:#eeeeee;stroke-width:0.61283344"
           id="line74"
           x1="0"
           y1="0" />
        <text
           x="-985"
           y="0"
           dy="1.5862176e-37"
           style="font-size:10px;line-height:14px;text-anchor:end;fill:#aaaaaa;display:block"
           id="text76">100k</text>
      </g>
      <g
         class="tick"
         transform="translate(0,138.05027)"
         style="font-size:10px;line-height:14px;fill:#aaaaaa"
         id="g78">
        <line
           x2="-980"
           y2="0"
           style="font-size:10px;line-height:14px;fill:#aaaaaa;stroke:#eeeeee;stroke-width:0.61283344"
           id="line80"
           x1="0"
           y1="0" />
        <text
           x="-985"
           y="0"
           dy="1.5862176e-37"
           style="font-size:10px;line-height:14px;text-anchor:end;fill:#aaaaaa;display:block"
           id="text82">200k</text>
      </g>
      <g
         class="tick"
         transform="translate(0,75.492371)"
         style="font-size:10px;line-height:14px;fill:#aaaaaa"
         id="g84">
        <line
           x2="-980"
           y2="0"
           style="font-size:10px;line-height:14px;fill:#aaaaaa;stroke:#eeeeee;stroke-width:0.61283344"
           id="line86"
           x1="0"
           y1="0" />
        <text
           x="-985"
           y="0"
           dy="1.5862176e-37"
           style="font-size:10px;line-height:14px;text-anchor:end;fill:#aaaaaa;display:block"
           id="text88">300k</text>
      </g>
      <g
         class="tick"
         transform="translate(0,12.934471)"
         style="font-size:10px;line-height:14px;fill:#aaaaaa"
         id="g90">
        <line
           x2="-980"
           y2="0"
           style="font-size:10px;line-height:14px;fill:#aaaaaa;stroke:#eeeeee;stroke-width:0.61283344"
           id="line92"
           x1="0"
           y1="0" />
        <text
           x="-985"
           y="0"
           dy="1.5862176e-37"
           style="font-size:10px;line-height:14px;text-anchor:end;fill:#aaaaaa;display:block"
           id="text94">400k</text>
      </g>
      <path
         class="domain"
         d="M -980,0 H 0 v 470 h -980"
         style="font-size:10px;line-height:14px;fill:#aaaaaa;display:none"
         id="path96"
         inkscape:connector-curvature="0" />
    </g>
    <path
       class="addition"
       d="m 0,263.16607 2.8527607,0 2.8527608,0 2.8527607,0 2.8527608,0 2.852761,0 2.85276,0 2.852761,0 2.852761,0 2.852761,0 2.85276,0 2.852761,0 2.852761,0 2.852761,0 2.85276,0 2.852761,0 2.852761,0 2.852761,0 2.85276,0 2.852761,0 2.852761,0 2.85276,0 2.852761,0 2.852761,0 2.852761,0 2.85276,0 2.852761,0 2.852761,0 2.852761,0 2.85276,0 2.852761,0 2.852761,0 2.852761,0 2.85276,0 2.852761,0 2.852761,0 2.852764,0 2.85276,0 2.85276,0 2.85276,0 2.85276,0 2.85276,0 2.85276,0 2.85276,0 2.85276,0 2.85276,0 2.85276,0 2.85276,0 2.85277,0 2.85276,0 2.85276,0 2.85276,0 2.85276,0 2.85276,0 2.85276,0 2.85276,0 2.85276,0 2.85276,0 2.85276,0 2.85276,0 2.85276,0 2.85276,0 2.85277,0 2.85276,0 2.85276,0 2.85276,0 2.85276,0 2.85276,0 2.85276,0 2.85276,0 2.85276,0 2.85276,0 2.85276,0 2.85276,0 2.85276,0 2.85277,0 2.85276,0 2.85276,0 2.85276,0 2.85276,0 2.85276,0 2.85276,0 2.85276,0 2.85276,0 2.85276,0 2.85276,0 2.85276,0 2.85276,0 2.85276,0 2.85277,0 2.85276,0 2.85276,0 2.85276,0 2.85276,0 2.85276,0 2.85276,0 2.85276,0 2.85276,0 2.85276,0 2.85276,0 2.85276,0 2.85276,0 2.85277,0 2.85276,0 2.85276,0 2.85276,0 2.85276,0 2.85276,0 2.85276,0 2.85276,0 2.85276,0 2.85276,0 2.85276,0 2.85276,0 2.85276,0 2.85276,0 2.85277,0 2.85276,0 2.85276,0 2.85276,0 2.85276,0 2.85276,0 2.85276,0 2.85276,0 2.85276,0 2.85276,0 2.85276,0 2.85276,0 2.85276,0 2.85276,0 2.85277,0 2.85276,0 2.85276,0 2.85276,0 2.85276,0 2.85276,0 2.85276,0 2.85276,0 2.85276,0 2.85276,0 2.85276,0 2.85276,0 2.85276,0 2.85277,0 2.85276,0 2.85276,0 2.85276,0 2.85276,0 2.85276,0 2.85276,0 2.85276,0 2.85276,0 2.85276,0 2.85276,0 2.85276,0 2.85276,0 2.85276,0 2.85277,0 2.85276,0 2.85276,0 2.85276,0 2.85276,0 2.85276,0 2.85276,0 2.85276,0 2.85276,0 2.85276,0 2.85276,0 2.85276,0 2.85276,0 2.85277,0 2.85276,0 2.85276,0 2.85276,0 2.85276,0 2.85276,0 2.85276,0 2.85276,0 2.85276,0 2.85276,0 2.85276,0 2.85276,0 2.85276,0 2.85276,0 2.85277,0 2.85276,0 2.85276,0 2.85276,0 2.85276,0 2.85276,0 2.85276,0 2.85276,0 2.85276,0 2.85276,0 2.85276,0 2.85276,0 2.85276,0 2.85277,0 2.85276,0 2.85276,0 2.85276,0 2.85276,0 2.85276,0 2.85276,0 2.85276,0 2.85276,0 2.85276,0 2.85276,0 2.85276,0 2.85276,0 2.85276,0 2.85277,0 2.85276,0 2.85276,0 2.85276,0 2.85276,0 2.85276,0 2.85276,0 2.85276,0 2.85276,0 2.85276,0 2.85276,0 2.85276,0 2.85276,0 2.85276,0 2.85277,0 2.85276,0 2.85276,0 2.85276,0 2.85276,0 2.85276,0 2.85276,0 2.85276,0 2.85276,0 2.85276,0 2.85276,0 2.85276,0 2.85276,0 2.85277,0 2.85276,0 2.85276,0 2.85276,0 2.85276,0 2.85276,0 2.85276,0 2.85276,0 2.85276,0 2.85276,0 2.85276,0 2.85276,0 2.85276,0 2.85276,0 2.85277,0 2.85276,0 2.85276,0 2.85276,0 2.85276,0 2.85276,0 2.85276,0 2.85276,0 2.85276,0 2.85276,0 2.85276,0 2.85276,0 2.85276,0 2.85277,0 2.85276,0 2.85276,0 2.85276,0 2.85276,0 2.85276,0 2.85276,0 2.85276,0 2.85276,0 2.85276,0 2.85276,0 2.85276,0 2.85276,0 2.85276,0 2.85277,0 2.85276,0 2.85276,0 2.85276,0 2.85276,0 2.85276,0 2.85276,0 2.85276,0 2.85276,0 2.85276,0 2.85276,0 2.85276,0 2.85276,0 2.85276,0 2.85277,0 2.85276,0 2.85276,0 2.85276,0 2.85276,0 2.85276,0 2.85276,0 2.85276,0 2.85276,0 2.85276,0 2.85276,0 2.85276,0 2.85276,0 2.85277,0 2.85276,0 2.85276,0 2.85276,0 2.85276,0 2.85276,0 2.85276,0 2.85276,0 2.85276,0 2.85276,0 2.85276,0 2.85276,0 2.85276,0 2.85276,0 2.85277,0 2.85276,0 2.85276,0 2.85276,0 2.85276,0 2.85276,0 2.85276,0 0,0 -2.85276,0 -2.85276,0 -2.85276,0 -2.85276,-0.49796 -2.85276,0.48607 -2.85276,0.003 -2.85277,-0.0438 -2.85276,0.0525 -2.85276,-0.1908 -2.85276,0.18892 -2.85276,-10e-4 -2.85276,-0.002 -2.85276,-0.0538 -2.85276,0.0588 -2.85276,-0.0113 -2.85276,0.004 -2.85276,0.007 -2.85276,-0.0113 -2.85276,0.006 -2.85276,-0.002 -2.85277,0.008 -2.85276,-1.32811 -2.85276,0.944 -2.85276,0.38098 -2.85276,-0.31717 -2.85276,-1.39942 -2.85276,1.70971 -2.85276,-0.0282 -2.85276,-0.0995 -2.85276,0.13137 -2.85276,0.004 -2.85276,-0.14889 -2.85276,-0.12074 -2.85277,-0.61244 -2.85276,-5.44379 -2.85276,6.3146 -2.85276,-0.77822 -2.85276,0.79135 -2.85276,6.3e-4 -2.85276,0 -2.85276,-1.36001 -2.85276,1.35751 L 807.33129,173.3298 804.47853,0 l -2.85276,253.67291 -2.85276,9.04212 -2.85276,-29.53797 -2.85277,29.8495 -2.85276,-0.32592 -2.85276,0.45855 -2.85276,-0.025 -2.85276,0.0282 -2.85276,-0.3985 -2.85276,0.05 -2.85276,0.35157 -2.85276,-0.004 -2.85276,0.004 -2.85276,-0.14826 -2.85276,0.0963 -2.85276,0.0463 -2.85276,0.006 -2.85277,-6.3e-4 -2.85276,-0.71441 -2.85276,0.68188 -2.85276,-4.24017 -2.85276,-3.95804 -2.85276,7.42187 -2.85276,0.65248 -2.85276,-0.8902 -2.85276,1.00656 -2.85276,-0.0525 -2.85276,0.0932 -2.85276,-4.25519 -2.85276,-27.2227 -2.85277,11.54819 -2.85276,19.67947 -2.85276,0.24898 -2.85276,-23.38039 -2.85276,-28.71283 -2.85276,37.70678 -2.85276,14.36892 -2.85276,-6.32585 -2.85276,4.94019 -2.85276,1.38566 -2.85276,0.0188 -2.85276,-0.32217 -2.85276,0.21457 -2.85276,0.1076 -2.85277,-0.22834 -2.85276,0.13388 -2.85276,-0.41351 -2.85276,0.50797 -2.85276,-0.0795 -2.85276,-0.1933 -2.85276,-4.40533 -2.85276,-11.45685 -2.85276,14.36704 -2.85276,0.82201 -2.85276,-1.95368 -2.85276,-0.0744 -2.85276,-12.28512 -2.85277,15.13087 -2.85276,0.12825 -2.85276,-3.94115 -2.85276,3.94115 -2.85276,-0.0888 -2.85276,-0.16328 -2.85276,0.10697 -2.85276,-0.33843 -2.85276,0.36721 -2.85276,0.11573 -2.85276,6.3e-4 -2.85276,-6.3e-4 -2.85276,-7.61017 -2.85276,7.6108 -2.85277,-0.10823 -2.85276,0.092 -2.85276,-1.41631 -2.85276,-0.56364 -2.85276,1.69156 -2.85276,0.26337 -2.85276,-0.0776 -2.85276,-0.60494 -2.85276,0.67813 -2.85276,0.0457 -2.85276,-0.14451 -2.85276,-3.73909 -2.85276,3.70844 -2.85276,0.17516 -2.85277,0 -2.85276,0 -2.85276,-1.32748 -2.85276,1.29057 -2.85276,0.0194 -2.85276,0.0175 -2.85276,-0.097 -2.85276,-1.01906 -2.85276,-0.0313 -2.85276,1.07975 -2.85276,0.0669 -2.85276,-0.27338 -2.85276,-1.84483 -2.85277,2.11884 -2.85276,0 -2.85276,0 -2.85276,0 -2.85276,-0.0613 -2.85276,-0.0651 -2.85276,0.12637 -2.85276,-0.15139 -2.85276,0.12011 -2.85276,-0.25962 -2.85276,0.18267 -2.85276,-0.8389 -2.85276,0.78886 -2.85276,-0.19643 -2.85277,-0.22959 -2.85276,-0.23897 -2.85276,0.76571 -2.85276,0 -2.85276,-0.63747 -2.85276,0.54676 -2.85276,0.0313 -2.85276,-0.5355 -2.85276,-8.76561 -2.85276,-10.86256 -2.85276,-15.13776 -2.85276,35.40339 -2.85276,0.0119 -2.85277,-0.66499 -2.85276,0.28151 -2.85276,-0.0807 -2.85276,-0.49733 -2.85276,0.91459 -2.85276,-0.28276 -2.85276,-0.13763 -2.85276,-6.12066 -2.85276,6.01744 -2.85276,-0.055 -2.85276,-0.0269 -2.85276,0.50172 -2.85276,-0.80325 -2.85276,0.41601 -2.85277,-0.32968 -2.85276,0.11511 -2.85276,-0.42164 -2.85276,0.81701 -2.85276,0.002 -2.85276,0.0494 -2.85276,-0.31091 -2.85276,0.49233 -2.85276,-0.0807 -2.85276,0.0694 -2.85276,-0.0745 -2.85276,-1.52891 -2.85276,-0.55302 -2.85277,1.55394 -2.85276,0.66812 -2.85276,-0.50296 -2.85276,0.39098 -2.85276,0.16828 -2.85276,0.0156 -2.85276,-0.14263 -2.85276,-0.0369 -2.85276,-0.2127 -2.85276,0.28339 -2.85276,0.10948 -2.85276,-0.006 -2.85276,-0.0325 -2.85276,0.0357 -2.85277,-0.15014 -2.85276,-1.08476 -2.85276,-0.53487 -2.85276,0.11949 -2.85276,0.38973 -2.85276,0.9121 -2.85276,0.10072 -2.85276,-0.87706 -2.85276,-0.89834 -2.85276,0.70315 -2.85276,1.21363 -2.85276,-0.12637 -2.85276,-0.81012 -2.85276,0.15264 -2.85277,-0.38724 -2.85276,-2.69624 -2.85276,3.97618 -2.85276,-2.00311 -2.85276,0.9953 -2.85276,-3.18232 -2.85276,0.83953 -2.85276,1.0541 -2.85276,1.94367 -2.85276,-0.68626 -2.85276,-0.0394 -2.85276,-0.132 -2.85276,0.27526 -2.85277,0.0663 -2.85276,-1.84483 -2.85276,-0.20582 -2.85276,2.77632 -2.85276,-3.60146 -2.85276,1.22364 -2.85276,2.52108 -2.85276,0 -2.85276,-0.43853 -2.85276,-0.82514 -2.85276,-1.04222 -2.85276,0.89708 -2.85276,-2.85639 -2.85276,1.42382 -2.85277,-3.74659 -2.85276,2.84075 -2.85276,-35.30267 -2.85276,39.04989 -2.85276,0 -2.85276,0 -2.85276,0 -2.85276,0 -2.85276,0 -2.85276,0 -2.85276,0 -2.85276,0 -2.85276,0 -2.85277,0 -2.85276,0 -2.85276,0 -2.85276,-0.006 -2.85276,0.006 -2.85276,0 -2.85276,-0.0131 -2.85276,0.0131 -2.85276,0 -2.85276,0 -2.85276,0 -2.85276,0 -2.85276,-0.0338 -2.85276,0.0325 -2.85277,10e-4 -2.85276,0 -2.85276,0 -2.85276,0 -2.85276,-6.3e-4 -2.85276,-0.009 -2.85276,0.009 -2.85276,0 -2.85276,0 -2.85276,0 -2.85276,0 -2.85276,0 -2.852764,0 -2.852761,0 -2.852761,0 -2.85276,0 -2.852761,0 -2.852761,0 -2.852761,0 -2.85276,0 -2.852761,0 -2.852761,0 -2.852761,0 -2.85276,0 -2.852761,-0.16578 -2.852761,0.16578 -2.852761,0 -2.85276,-1.23114 -2.852761,0.83077 -2.852761,0.35533 -2.85276,-1.27556 -2.852761,-5.48257 -2.852761,4.02685 -2.852761,1.03346 -2.85276,0.56489 -2.852761,-5.14538 -2.852761,5.23484 -2.852761,0.51798 -2.85276,-1.22676 -2.852761,-0.18017 -2.852761,0.97966 -2.852761,-2.52171 -2.85276,1.19423 -2.852761,-2.77069 -2.8527608,0.0788 L 5.7055215,255.63222 2.8527607,248.10213 0,240.82664 z"
       style="fill:#6cc644"
       id="path98"
       inkscape:connector-curvature="0" />
    <path
       class="deletion"
       d="m 0,263.16607 2.8527607,0 2.8527608,0 2.8527607,0 2.8527608,0 2.852761,0 2.85276,0 2.852761,0 2.852761,0 2.852761,0 2.85276,0 2.852761,0 2.852761,0 2.852761,0 2.85276,0 2.852761,0 2.852761,0 2.852761,0 2.85276,0 2.852761,0 2.852761,0 2.85276,0 2.852761,0 2.852761,0 2.852761,0 2.85276,0 2.852761,0 2.852761,0 2.852761,0 2.85276,0 2.852761,0 2.852761,0 2.852761,0 2.85276,0 2.852761,0 2.852761,0 2.852764,0 2.85276,0 2.85276,0 2.85276,0 2.85276,0 2.85276,0 2.85276,0 2.85276,0 2.85276,0 2.85276,0 2.85276,0 2.85276,0 2.85277,0 2.85276,0 2.85276,0 2.85276,0 2.85276,0 2.85276,0 2.85276,0 2.85276,0 2.85276,0 2.85276,0 2.85276,0 2.85276,0 2.85276,0 2.85276,0 2.85277,0 2.85276,0 2.85276,0 2.85276,0 2.85276,0 2.85276,0 2.85276,0 2.85276,0 2.85276,0 2.85276,0 2.85276,0 2.85276,0 2.85276,0 2.85277,0 2.85276,0 2.85276,0 2.85276,0 2.85276,0 2.85276,0 2.85276,0 2.85276,0 2.85276,0 2.85276,0 2.85276,0 2.85276,0 2.85276,0 2.85276,0 2.85277,0 2.85276,0 2.85276,0 2.85276,0 2.85276,0 2.85276,0 2.85276,0 2.85276,0 2.85276,0 2.85276,0 2.85276,0 2.85276,0 2.85276,0 2.85277,0 2.85276,0 2.85276,0 2.85276,0 2.85276,0 2.85276,0 2.85276,0 2.85276,0 2.85276,0 2.85276,0 2.85276,0 2.85276,0 2.85276,0 2.85276,0 2.85277,0 2.85276,0 2.85276,0 2.85276,0 2.85276,0 2.85276,0 2.85276,0 2.85276,0 2.85276,0 2.85276,0 2.85276,0 2.85276,0 2.85276,0 2.85276,0 2.85277,0 2.85276,0 2.85276,0 2.85276,0 2.85276,0 2.85276,0 2.85276,0 2.85276,0 2.85276,0 2.85276,0 2.85276,0 2.85276,0 2.85276,0 2.85277,0 2.85276,0 2.85276,0 2.85276,0 2.85276,0 2.85276,0 2.85276,0 2.85276,0 2.85276,0 2.85276,0 2.85276,0 2.85276,0 2.85276,0 2.85276,0 2.85277,0 2.85276,0 2.85276,0 2.85276,0 2.85276,0 2.85276,0 2.85276,0 2.85276,0 2.85276,0 2.85276,0 2.85276,0 2.85276,0 2.85276,0 2.85277,0 2.85276,0 2.85276,0 2.85276,0 2.85276,0 2.85276,0 2.85276,0 2.85276,0 2.85276,0 2.85276,0 2.85276,0 2.85276,0 2.85276,0 2.85276,0 2.85277,0 2.85276,0 2.85276,0 2.85276,0 2.85276,0 2.85276,0 2.85276,0 2.85276,0 2.85276,0 2.85276,0 2.85276,0 2.85276,0 2.85276,0 2.85277,0 2.85276,0 2.85276,0 2.85276,0 2.85276,0 2.85276,0 2.85276,0 2.85276,0 2.85276,0 2.85276,0 2.85276,0 2.85276,0 2.85276,0 2.85276,0 2.85277,0 2.85276,0 2.85276,0 2.85276,0 2.85276,0 2.85276,0 2.85276,0 2.85276,0 2.85276,0 2.85276,0 2.85276,0 2.85276,0 2.85276,0 2.85276,0 2.85277,0 2.85276,0 2.85276,0 2.85276,0 2.85276,0 2.85276,0 2.85276,0 2.85276,0 2.85276,0 2.85276,0 2.85276,0 2.85276,0 2.85276,0 2.85277,0 2.85276,0 2.85276,0 2.85276,0 2.85276,0 2.85276,0 2.85276,0 2.85276,0 2.85276,0 2.85276,0 2.85276,0 2.85276,0 2.85276,0 2.85276,0 2.85277,0 2.85276,0 2.85276,0 2.85276,0 2.85276,0 2.85276,0 2.85276,0 2.85276,0 2.85276,0 2.85276,0 2.85276,0 2.85276,0 2.85276,0 2.85277,0 2.85276,0 2.85276,0 2.85276,0 2.85276,0 2.85276,0 2.85276,0 2.85276,0 2.85276,0 2.85276,0 2.85276,0 2.85276,0 2.85276,0 2.85276,0 2.85277,0 2.85276,0 2.85276,0 2.85276,0 2.85276,0 2.85276,0 2.85276,0 2.85276,0 2.85276,0 2.85276,0 2.85276,0 2.85276,0 2.85276,0 2.85276,0 2.85277,0 2.85276,0 2.85276,0 2.85276,0 2.85276,0 2.85276,0 2.85276,0 2.85276,0 2.85276,0 2.85276,0 2.85276,0 2.85276,0 2.85276,0 2.85277,0 2.85276,0 2.85276,0 2.85276,0 2.85276,0 2.85276,0 2.85276,0 2.85276,0 2.85276,0 2.85276,0 2.85276,0 2.85276,0 2.85276,0 2.85276,0 2.85277,0 2.85276,0 2.85276,0 2.85276,0 2.85276,0 2.85276,0 2.85276,0 0,0 -2.85276,0 -2.85276,0 -2.85276,0 -2.85276,0.097 -2.85276,-0.0957 -2.85276,0.002 -2.85277,0.0519 -2.85276,-0.055 -2.85276,0.007 -2.85276,-0.005 -2.85276,10e-4 -2.85276,-0.002 -2.85276,0.0538 -2.85276,-0.055 -2.85276,0.001 -2.85276,0.002 -2.85276,-0.004 -2.85276,0.0281 -2.85276,-0.0225 -2.85276,-0.002 -2.85277,-0.003 -2.85276,0.0181 -2.85276,-0.006 -2.85276,-0.009 -2.85276,-10e-4 -2.85276,0.16453 -2.85276,-0.15765 -2.85276,0 -2.85276,0.0169 -2.85276,-0.0188 -2.85276,-0.003 -2.85276,0.12073 -2.85276,0.0325 -2.85277,2.57238 -2.85276,-2.57738 -2.85276,-0.14326 -2.85276,0.78197 -2.85276,-0.7901 -2.85276,0 -2.85276,0 -2.85276,2.02437 -2.85276,-2.01686 -2.85276,119.51373 -2.85276,87.31269 -2.85276,-202.64505 -2.85276,-4.14384 -2.85276,28.56394 -2.85277,-28.48824 -2.85276,0.18204 -2.85276,-0.30028 -2.85276,-10e-4 -2.85276,0.002 -2.85276,0.5749 -2.85276,-0.32217 -2.85276,-0.25586 -2.85276,0.004 -2.85276,-0.003 -2.85276,0.0838 -2.85276,-0.0319 -2.85276,-0.0525 -2.85276,0 -2.85277,0 -2.85276,0.72817 -2.85276,-0.71816 -2.85276,3.67027 -2.85276,6.83945 -2.85276,-9.75277 -2.85276,-0.538 -2.85276,0.42665 -2.85276,-0.6481 -2.85276,0.20769 -2.85276,-0.2152 -2.85276,3.71719 -2.85276,30.28365 -2.85277,-32.57827 -2.85276,-1.26117 -2.85276,-0.16015 -2.85276,18.02293 -2.85276,29.65495 -2.85276,-42.76896 -2.85276,-4.90767 -2.85276,4.60426 -2.85276,-4.02435 -2.85276,-0.58179 -2.85276,-6.2e-4 -2.85276,0.0319 -2.85276,-0.0138 -2.85276,-0.0181 -2.85277,0.12824 -2.85276,-0.11385 -2.85276,0.50109 -2.85276,-0.51548 -2.85276,0.0338 -2.85276,0.11949 -2.85276,2.51357 -2.85276,-2.49418 -2.85276,0.025 -2.85276,0.009 -2.85276,1.15794 -2.85276,-1.33311 -2.85276,0.12449 -2.85277,-0.12449 -2.85276,-0.0319 -2.85276,3.13603 -2.85276,-3.13603 -2.85276,0.0407 -2.85276,0.0607 -2.85276,-0.0594 -2.85276,0.0788 -2.85276,-0.0776 -2.85276,-0.0425 -2.85276,-6.2e-4 -2.85276,0 -2.85276,2.50357 -2.85276,-2.50357 -2.85277,0.0638 -2.85276,-0.0538 -2.85276,0.42789 -2.85276,0.21583 -2.85276,-0.60619 -2.85276,-0.0307 -2.85276,0.0957 -2.85276,0.0945 -2.85276,-0.17392 -2.85276,-0.0332 -2.85276,0.0738 -2.85276,3.51513 -2.85276,-3.43756 -2.85276,-0.15139 -2.85277,0 -2.85276,0 -2.85276,0.0669 -2.85276,-0.0626 -2.85276,-0.004 -2.85276,0 -2.85276,0.0926 -2.85276,0.22146 -2.85276,0.17516 -2.85276,-0.44916 -2.85276,-0.0394 -2.85276,0.25461 -2.85276,0.8558 -2.85277,-1.11103 -2.85276,0 -2.85276,0 -2.85276,0 -2.85276,0.17829 -2.85276,5.36371 -2.85276,-5.542 -2.85276,0.0263 -2.85276,0.0231 -2.85276,0.055 -2.85276,-0.0757 -2.85276,0.21332 -2.85276,-0.18893 -2.85276,0.004 -2.85277,0.38035 -2.85276,-0.0288 -2.85276,-0.36972 -2.85276,0.0144 -2.85276,0.18329 -2.85276,-0.19956 -2.85276,-0.0156 -2.85276,0.17517 -2.85276,1.52954 -2.85276,16.59473 -2.85276,-0.11323 -2.85276,-18.20435 -2.85276,-0.003 -2.85277,0.10135 -2.85276,0.16828 -2.85276,0.56928 -2.85276,-0.36784 -2.85276,-0.4573 -2.85276,0.14075 -2.85276,0.0851 -2.85276,5.0553 -2.85276,-4.71123 -2.85276,-0.20957 -2.85276,-0.2665 -2.85276,-0.0457 -2.85276,2.54923 -2.85276,-2.23644 -2.85277,0.34782 -2.85276,-0.2396 -2.85276,-0.1051 -2.85276,0.29215 -2.85276,-0.49421 -2.85276,-0.14263 -2.85276,0.72317 -2.85276,-0.64748 -2.85276,-0.082 -2.85276,-0.0175 -2.85276,0.0938 -2.85276,0.82514 -2.85276,0.55552 -2.85277,-1.23927 -2.85276,-0.14326 -2.85276,0.80637 -2.85276,-0.60306 -2.85276,-0.29777 -2.85276,-0.007 -2.85276,0.14013 -2.85276,0.008 -2.85276,0.0488 -2.85276,-0.17829 -2.85276,-0.0194 -2.85276,0.0138 -2.85276,0.006 -2.85276,-0.0188 -2.85277,0.10009 -2.85276,1.0466 -2.85276,0.56051 -2.85276,-0.78948 -2.85276,-0.72129 -2.85276,0.0432 -2.85276,0.11823 -2.85276,0.39474 -2.85276,0.19456 -2.85276,0.25586 -2.85276,-1.16671 -2.85276,0.0613 -2.85276,0.91084 -2.85276,-0.52548 -2.85277,9.28171 -2.85276,-8.39277 -2.85276,-1.37314 -2.85276,0.71191 -2.85276,-0.16641 -2.85276,1.69595 -2.85276,-0.22333 -2.85276,0.65122 -2.85276,-2.44664 -2.85276,4.5342 -2.85276,-4.43035 -2.85276,1.89175 -2.85276,-1.49513 -2.85277,2.11571 -2.85276,-2.33404 -2.85276,0.27213 -2.85276,-0.69565 -2.85276,1.36377 -2.85276,-0.62809 -2.85276,-0.817 -2.85276,0 -2.85276,0.11073 -2.85276,0.92398 -2.85276,0.46167 -2.85276,-0.84203 -2.85276,1.30434 -2.85276,-0.82139 -2.85277,2.57238 -2.85276,1.0516 -2.85276,5.05843 -2.85276,-9.81971 -2.85276,0 -2.85276,0 -2.85276,0 -2.85276,0 -2.85276,0 -2.85276,0 -2.85276,0 -2.85276,0 -2.85276,0 -2.85277,0 -2.85276,45.04544 -2.85276,-45.04544 -2.85276,0.006 -2.85276,-0.006 -2.85276,0 -2.85276,0.0138 -2.85276,-0.0138 -2.85276,0 -2.85276,0 -2.85276,0 -2.85276,0 -2.85276,0.0332 -2.85276,-0.0319 -2.85277,-0.001 -2.85276,0 -2.85276,0 -2.85276,0 -2.85276,6.2e-4 -2.85276,0.009 -2.85276,-0.009 -2.85276,0 -2.85276,0 -2.85276,0 -2.85276,0 -2.85276,0 -2.852764,0 -2.852761,0 -2.852761,0 -2.85276,0 -2.852761,0 -2.852761,0 -2.852761,0 -2.85276,0 -2.852761,0 -2.852761,0 -2.852761,0 -2.85276,0 -2.852761,0.0563 -2.852761,-0.0563 -2.852761,0 -2.85276,0.89207 -2.852761,-0.72317 -2.852761,-0.12761 -2.85276,0.85329 -2.852761,3.41691 -2.852761,-3.28304 -2.852761,-0.17641 -2.85276,-0.31655 -2.852761,3.8298 -2.852761,-3.31557 -2.852761,-0.95025 -2.85276,2.30275 -2.852761,-1.38378 -2.852761,-0.42226 -2.852761,0.94087 -2.85276,-0.0451 -2.852761,0.46981 -2.8527608,1.92866 -2.8527607,0.16265 L 2.8527607,274.9551 0,264.39846 z"
       style="fill:#bd2c00"
       id="path100"
       inkscape:connector-curvature="0" />
  </g>
  <text
     xml:space="preserve"
     style="font-size:11px;font-style:normal;font-variant:normal;font-weight:normal;font-stretch:normal;text-align:end;line-height:125%;letter-spacing:0px;word-spacing:0px;writing-mode:lr-tb;text-anchor:end;fill:#000000;fill-opacity:1;stroke:none;font-family:Arial;-inkscape-font-specification:Arial"
     x="247.54297"
     y="7.8740234"
     id="text3859"
     sodipodi:linespacing="125%"><tspan
       sodipodi:role="line"
       id="tspan3861"
       x="247.54297"
       y="7.8740234"
       style="fill:#666666"><tspan
   style="font-weight:bold;fill:#6cc644;fill-opacity:1;-inkscape-font-specification:Arial Bold"
   id="tspan3863">Additions</tspan> and <tspan
   style="font-weight:bold;fill:#bd2c00;fill-opacity:1;-inkscape-font-specification:Arial Bold"
   id="tspan3875">D</tspan><tspan
   style="font-weight:bold;fill:#bd2c00;fill-opacity:1;-inkscape-font-specification:Arial Bold"
   id="tspan3865">eletions</tspan> per week</tspan></text>
</svg>
