<?xml version="1.0" standalone="no"?><!DOCTYPE svg PUBLIC "-//W3C//DTD SVG 1.1//EN" "http://www.w3.org/Graphics/SVG/1.1/DTD/svg11.dtd"><svg width="980" height="500" class="viz code-frequency" version="1.1" xmlns="http://www.w3.org/2000/svg" xmlns:xlink="http://www.w3.org/1999/xlink" style="height:500px;width:980px;perspective-origin:490px 250px;transform-origin:490px 250px;"><g transform="translate(40,10)" style="height:auto;overflow-x:visible;overflow-y:visible;width:auto;perspective-origin:0px 0px;transform-origin:0px 0px;"><g class="x axis" transform="translate(0, 470)" style="font-size:10px;height:auto;line-height:14px;overflow-x:visible;overflow-y:visible;width:auto;perspective-origin:0px 0px;transform-origin:0px 0px;fill:rgb(170, 170, 170);"><g class="tick" transform="translate(139.49660385626643,0)" style="font-size:10px;height:auto;line-height:14px;overflow-x:visible;overflow-y:visible;width:auto;perspective-origin:0px 0px;transform-origin:0px 0px;fill:rgb(170, 170, 170);"><line y2="6" x2="0" style="font-size:10px;height:auto;line-height:14px;overflow-x:visible;overflow-y:visible;width:auto;perspective-origin:0px 0px;transform-origin:0px 0px;fill:rgb(170, 170, 170);shape-rendering:crispEdges;stroke:rgb(238, 238, 238);"/><text y="9" x="0" dy=".71em" style="display:block;font-size:10px;height:11.5px;line-height:14px;overflow-x:visible;overflow-y:visible;white-space:nowrap;width:24.2812px;perspective-origin:12.1406px 5.75px;transform-origin:0px 0px;fill:rgb(170, 170, 170);text-anchor:middle;">01/11</text></g><g class="tick" transform="translate(288.24769938650303,0)" style="font-size:10px;height:auto;line-height:14px;overflow-x:visible;overflow-y:visible;width:auto;perspective-origin:0px 0px;transform-origin:0px 0px;fill:rgb(170, 170, 170);"><line y2="6" x2="0" style="font-size:10px;height:auto;line-height:14px;overflow-x:visible;overflow-y:visible;width:auto;perspective-origin:0px 0px;transform-origin:0px 0px;fill:rgb(170, 170, 170);shape-rendering:crispEdges;stroke:rgb(238, 238, 238);"/><text y="9" x="0" dy=".71em" style="display:block;font-size:10px;height:11.5px;line-height:14px;overflow-x:visible;overflow-y:visible;white-space:nowrap;width:25.0156px;perspective-origin:12.5px 5.75px;transform-origin:0px 0px;fill:rgb(170, 170, 170);text-anchor:middle;">01/12</text></g><g class="tick" transform="translate(437.4063321647677,0)" style="font-size:10px;height:auto;line-height:14px;overflow-x:visible;overflow-y:visible;width:auto;perspective-origin:0px 0px;transform-origin:0px 0px;fill:rgb(170, 170, 170);"><line y2="6" x2="0" style="font-size:10px;height:auto;line-height:14px;overflow-x:visible;overflow-y:visible;width:auto;perspective-origin:0px 0px;transform-origin:0px 0px;fill:rgb(170, 170, 170);shape-rendering:crispEdges;stroke:rgb(238, 238, 238);"/><text y="9" x="0" dy=".71em" style="display:block;font-size:10px;height:11.5px;line-height:14px;overflow-x:visible;overflow-y:visible;white-space:nowrap;width:25.0156px;perspective-origin:12.5px 5.75px;transform-origin:0px 0px;fill:rgb(170, 170, 170);text-anchor:middle;">01/13</text></g><g class="tick" transform="translate(586.1574276950045,0)" style="font-size:10px;height:auto;line-height:14px;overflow-x:visible;overflow-y:visible;width:auto;perspective-origin:0px 0px;transform-origin:0px 0px;fill:rgb(170, 170, 170);"><line y2="6" x2="0" style="font-size:10px;height:auto;line-height:14px;overflow-x:visible;overflow-y:visible;width:auto;perspective-origin:0px 0px;transform-origin:0px 0px;fill:rgb(170, 170, 170);shape-rendering:crispEdges;stroke:rgb(238, 238, 238);"/><text y="9" x="0" dy=".71em" style="display:block;font-size:10px;height:11.5px;line-height:14px;overflow-x:visible;overflow-y:visible;white-space:nowrap;width:25.0156px;perspective-origin:12.5px 5.75px;transform-origin:0px 0px;fill:rgb(170, 170, 170);text-anchor:middle;">01/14</text></g><g class="tick" transform="translate(734.908523225241,0)" style="font-size:10px;height:auto;line-height:14px;overflow-x:visible;overflow-y:visible;width:auto;perspective-origin:0px 0px;transform-origin:0px 0px;fill:rgb(170, 170, 170);"><line y2="6" x2="0" style="font-size:10px;height:auto;line-height:14px;overflow-x:visible;overflow-y:visible;width:auto;perspective-origin:0px 0px;transform-origin:0px 0px;fill:rgb(170, 170, 170);shape-rendering:crispEdges;stroke:rgb(238, 238, 238);"/><text y="9" x="0" dy=".71em" style="display:block;font-size:10px;height:11.5px;line-height:14px;overflow-x:visible;overflow-y:visible;white-space:nowrap;width:25.0156px;perspective-origin:12.5px 5.75px;transform-origin:0px 0px;fill:rgb(170, 170, 170);text-anchor:middle;">01/15</text></g><g class="tick" transform="translate(883.6596187554777,0)" style="font-size:10px;height:auto;line-height:14px;overflow-x:visible;overflow-y:visible;width:auto;perspective-origin:0px 0px;transform-origin:0px 0px;fill:rgb(170, 170, 170);"><line y2="6" x2="0" style="font-size:10px;height:auto;line-height:14px;overflow-x:visible;overflow-y:visible;width:auto;perspective-origin:0px 0px;transform-origin:0px 0px;fill:rgb(170, 170, 170);shape-rendering:crispEdges;stroke:rgb(238, 238, 238);"/><text y="9" x="0" dy=".71em" style="display:block;font-size:10px;height:11.5px;line-height:14px;overflow-x:visible;overflow-y:visible;white-space:nowrap;width:25.0156px;perspective-origin:12.5px 5.75px;transform-origin:0px 0px;fill:rgb(170, 170, 170);text-anchor:middle;">01/16</text></g><path class="domain" d="M0,6V0H930V6" style="display:none;font-size:10px;height:auto;line-height:14px;overflow-x:visible;overflow-y:visible;width:auto;perspective-origin:50% 50%;transform-origin:0px 0px;fill:rgb(170, 170, 170);"/></g><g class="y axis" transform="translate(980, 0)" style="font-size:10px;height:auto;line-height:14px;overflow-x:visible;overflow-y:visible;width:auto;perspective-origin:0px 0px;transform-origin:0px 0px;fill:rgb(170, 170, 170);"><g class="tick" transform="translate(0,450.8397665924845)" style="font-size:10px;height:auto;line-height:14px;overflow-x:visible;overflow-y:visible;width:auto;perspective-origin:0px 0px;transform-origin:0px 0px;fill:rgb(170, 170, 170);"><line x2="-980" y2="0" style="font-size:10px;height:auto;line-height:14px;overflow-x:visible;overflow-y:visible;width:auto;perspective-origin:0px 0px;transform-origin:0px 0px;fill:rgb(170, 170, 170);shape-rendering:crispEdges;stroke:rgb(238, 238, 238);"/><text x="-985" y="0" dy=".32em" style="display:block;font-size:10px;height:11.5px;line-height:14px;overflow-x:visible;overflow-y:visible;white-space:nowrap;width:21.6719px;perspective-origin:10.8281px 5.75px;transform-origin:0px 0px;fill:rgb(170, 170, 170);text-anchor:end;">300k</text></g><g class="tick" transform="translate(0,388.2818672601237)" style="font-size:10px;height:auto;line-height:14px;overflow-x:visible;overflow-y:visible;width:auto;perspective-origin:0px 0px;transform-origin:0px 0px;fill:rgb(170, 170, 170);"><line x2="-980" y2="0" style="font-size:10px;height:auto;line-height:14px;overflow-x:visible;overflow-y:visible;width:auto;perspective-origin:0px 0px;transform-origin:0px 0px;fill:rgb(170, 170, 170);shape-rendering:crispEdges;stroke:rgb(238, 238, 238);"/><text x="-985" y="0" dy=".32em" style="display:block;font-size:10px;height:11.5px;line-height:14px;overflow-x:visible;overflow-y:visible;white-space:nowrap;width:21.6719px;perspective-origin:10.8281px 5.75px;transform-origin:0px 0px;fill:rgb(170, 170, 170);text-anchor:end;">200k</text></g><g class="tick" transform="translate(0,325.72396792776294)" style="font-size:10px;height:auto;line-height:14px;overflow-x:visible;overflow-y:visible;width:auto;perspective-origin:0px 0px;transform-origin:0px 0px;fill:rgb(170, 170, 170);"><line x2="-980" y2="0" style="font-size:10px;height:auto;line-height:14px;overflow-x:visible;overflow-y:visible;width:auto;perspective-origin:0px 0px;transform-origin:0px 0px;fill:rgb(170, 170, 170);shape-rendering:crispEdges;stroke:rgb(238, 238, 238);"/><text x="-985" y="0" dy=".32em" style="display:block;font-size:10px;height:11.5px;line-height:14px;overflow-x:visible;overflow-y:visible;white-space:nowrap;width:21.6719px;perspective-origin:10.8281px 5.75px;transform-origin:0px 0px;fill:rgb(170, 170, 170);text-anchor:end;">100k</text></g><g class="tick" transform="translate(0,263.1660685954021)" style="font-size:10px;height:auto;line-height:14px;overflow-x:visible;overflow-y:visible;width:auto;perspective-origin:0px 0px;transform-origin:0px 0px;fill:rgb(170, 170, 170);"><line x2="-980" y2="0" style="font-size:10px;height:auto;line-height:14px;overflow-x:visible;overflow-y:visible;width:auto;perspective-origin:0px 0px;transform-origin:0px 0px;fill:rgb(170, 170, 170);shape-rendering:crispEdges;stroke:rgb(238, 238, 238);"/><text x="-985" y="0" dy=".32em" style="display:block;font-size:10px;height:11.5px;line-height:14px;overflow-x:visible;overflow-y:visible;white-space:nowrap;width:5.54688px;perspective-origin:2.76562px 5.75px;transform-origin:0px 0px;fill:rgb(170, 170, 170);text-anchor:end;">0</text></g><g class="tick" transform="translate(0,200.6081692630413)" style="font-size:10px;height:auto;line-height:14px;overflow-x:visible;overflow-y:visible;width:auto;perspective-origin:0px 0px;transform-origin:0px 0px;fill:rgb(170, 170, 170);"><line x2="-980" y2="0" style="font-size:10px;height:auto;line-height:14px;overflow-x:visible;overflow-y:visible;width:auto;perspective-origin:0px 0px;transform-origin:0px 0px;fill:rgb(170, 170, 170);shape-rendering:crispEdges;stroke:rgb(238, 238, 238);"/><text x="-985" y="0" dy=".32em" style="display:block;font-size:10px;height:11.5px;line-height:14px;overflow-x:visible;overflow-y:visible;white-space:nowrap;width:21.6719px;perspective-origin:10.8281px 5.75px;transform-origin:0px 0px;fill:rgb(170, 170, 170);text-anchor:end;">100k</text></g><g class="tick" transform="translate(0,138.05026993068054)" style="font-size:10px;height:auto;line-height:14px;overflow-x:visible;overflow-y:visible;width:auto;perspective-origin:0px 0px;transform-origin:0px 0px;fill:rgb(170, 170, 170);"><line x2="-980" y2="0" style="font-size:10px;height:auto;line-height:14px;overflow-x:visible;overflow-y:visible;width:auto;perspective-origin:0px 0px;transform-origin:0px 0px;fill:rgb(170, 170, 170);shape-rendering:crispEdges;stroke:rgb(238, 238, 238);"/><text x="-985" y="0" dy=".32em" style="display:block;font-size:10px;height:11.5px;line-height:14px;overflow-x:visible;overflow-y:visible;white-space:nowrap;width:21.6719px;perspective-origin:10.8281px 5.75px;transform-origin:0px 0px;fill:rgb(170, 170, 170);text-anchor:end;">200k</text></g><g class="tick" transform="translate(0,75.49237059831967)" style="font-size:10px;height:auto;line-height:14px;overflow-x:visible;overflow-y:visible;width:auto;perspective-origin:0px 0px;transform-origin:0px 0px;fill:rgb(170, 170, 170);"><line x2="-980" y2="0" style="font-size:10px;height:auto;line-height:14px;overflow-x:visible;overflow-y:visible;width:auto;perspective-origin:0px 0px;transform-origin:0px 0px;fill:rgb(170, 170, 170);shape-rendering:crispEdges;stroke:rgb(238, 238, 238);"/><text x="-985" y="0" dy=".32em" style="display:block;font-size:10px;height:11.5px;line-height:14px;overflow-x:visible;overflow-y:visible;white-space:nowrap;width:21.6719px;perspective-origin:10.8281px 5.75px;transform-origin:0px 0px;fill:rgb(170, 170, 170);text-anchor:end;">300k</text></g><g class="tick" transform="translate(0,12.934471265958905)" style="font-size:10px;height:auto;line-height:14px;overflow-x:visible;overflow-y:visible;width:auto;perspective-origin:0px 0px;transform-origin:0px 0px;fill:rgb(170, 170, 170);"><line x2="-980" y2="0" style="font-size:10px;height:auto;line-height:14px;overflow-x:visible;overflow-y:visible;width:auto;perspective-origin:0px 0px;transform-origin:0px 0px;fill:rgb(170, 170, 170);shape-rendering:crispEdges;stroke:rgb(238, 238, 238);"/><text x="-985" y="0" dy=".32em" style="display:block;font-size:10px;height:11.5px;line-height:14px;overflow-x:visible;overflow-y:visible;white-space:nowrap;width:21.6719px;perspective-origin:10.8281px 5.75px;transform-origin:0px 0px;fill:rgb(170, 170, 170);text-anchor:end;">400k</text></g><path class="domain" d="M-980,0H0V470H-980" style="display:none;font-size:10px;height:auto;line-height:14px;overflow-x:visible;overflow-y:visible;width:auto;perspective-origin:50% 50%;transform-origin:0px 0px;fill:rgb(170, 170, 170);"/></g><path class="addition" d="M0,263.1660685954021L2.852760736196319,263.1660685954021L5.705521472392638,263.1660685954021L8.558282208588956,263.1660685954021L11.411042944785276,263.1660685954021L14.263803680981596,263.1660685954021L17.116564417177912,263.1660685954021L19.969325153374236,263.1660685954021L22.822085889570552,263.1660685954021L25.67484662576687,263.1660685954021L28.52760736196319,263.1660685954021L31.380368098159508,263.1660685954021L34.233128834355824,263.1660685954021L37.08588957055215,263.1660685954021L39.93865030674847,263.1660685954021L42.79141104294478,263.1660685954021L45.644171779141104,263.1660685954021L48.49693251533742,263.1660685954021L51.34969325153374,263.1660685954021L54.20245398773006,263.1660685954021L57.05521472392638,263.1660685954021L59.9079754601227,263.1660685954021L62.760736196319016,263.1660685954021L65.61349693251533,263.1660685954021L68.46625766871165,263.1660685954021L71.31901840490798,263.1660685954021L74.1717791411043,263.1660685954021L77.02453987730061,263.1660685954021L79.87730061349694,263.1660685954021L82.73006134969326,263.1660685954021L85.58282208588956,263.1660685954021L88.43558282208588,263.1660685954021L91.28834355828221,263.1660685954021L94.14110429447852,263.1660685954021L96.99386503067484,263.1660685954021L99.84662576687116,263.1660685954021L102.69938650306749,263.1660685954021L105.5521472392638,263.1660685954021L108.40490797546012,263.1660685954021L111.25766871165645,263.1660685954021L114.11042944785277,263.1660685954021L116.96319018404908,263.1660685954021L119.8159509202454,263.1660685954021L122.6687116564417,263.1660685954021L125.52147239263803,263.1660685954021L128.37423312883436,263.1660685954021L131.22699386503066,263.1660685954021L134.079754601227,263.1660685954021L136.9325153374233,263.1660685954021L139.78527607361963,263.1660685954021L142.63803680981596,263.1660685954021L145.49079754601226,263.1660685954021L148.3435582822086,263.1660685954021L151.19631901840492,263.1660685954021L154.04907975460122,263.1660685954021L156.90184049079755,263.1660685954021L159.75460122699388,263.1660685954021L162.6073619631902,263.1660685954021L165.46012269938652,263.1660685954021L168.31288343558282,263.1660685954021L171.16564417177912,263.1660685954021L174.01840490797545,263.1660685954021L176.87116564417175,263.1660685954021L179.72392638036808,263.1660685954021L182.57668711656441,263.1660685954021L185.42944785276072,263.1660685954021L188.28220858895705,263.1660685954021L191.13496932515338,263.1660685954021L193.98773006134968,263.1660685954021L196.840490797546,263.1660685954021L199.6932515337423,263.1660685954021L202.54601226993864,263.1660685954021L205.39877300613497,263.1660685954021L208.25153374233128,263.1660685954021L211.1042944785276,263.1660685954021L213.95705521472394,263.1660685954021L216.80981595092024,263.1660685954021L219.66257668711657,263.1660685954021L222.5153374233129,263.1660685954021L225.3680981595092,263.1660685954021L228.22085889570553,263.1660685954021L231.07361963190183,263.1660685954021L233.92638036809817,263.1660685954021L236.77914110429447,263.1660685954021L239.6319018404908,263.1660685954021L242.4846625766871,263.1660685954021L245.3374233128834,263.1660685954021L248.19018404907976,263.1660685954021L251.04294478527606,263.1660685954021L253.89570552147237,263.1660685954021L256.7484662576687,263.1660685954021L259.60122699386505,263.1660685954021L262.4539877300613,263.1660685954021L265.30674846625766,263.1660685954021L268.159509202454,263.1660685954021L271.01226993865026,263.1660685954021L273.8650306748466,263.1660685954021L276.7177914110429,263.1660685954021L279.57055214723925,263.1660685954021L282.4233128834355,263.1660685954021L285.2760736196319,263.1660685954021L288.1288343558282,263.1660685954021L290.9815950920245,263.1660685954021L293.83435582822085,263.1660685954021L296.6871165644172,263.1660685954021L299.53987730061345,263.1660685954021L302.39263803680984,263.1660685954021L305.2453987730061,263.1660685954021L308.09815950920245,263.1660685954021L310.9509202453988,263.1660685954021L313.8036809815951,263.1660685954021L316.6564417177914,263.1660685954021L319.50920245398777,263.1660685954021L322.36196319018404,263.1660685954021L325.2147239263804,263.1660685954021L328.0674846625767,263.1660685954021L330.92024539877303,263.1660685954021L333.7730061349693,263.1660685954021L336.62576687116564,263.1660685954021L339.47852760736197,263.1660685954021L342.33128834355824,263.1660685954021L345.1840490797546,263.1660685954021L348.0368098159509,263.1660685954021L350.88957055214723,263.1660685954021L353.7423312883435,263.1660685954021L356.5950920245399,263.1660685954021L359.44785276073617,263.1660685954021L362.3006134969325,263.1660685954021L365.15337423312883,263.1660685954021L368.00613496932516,263.1660685954021L370.85889570552143,263.1660685954021L373.7116564417178,263.1660685954021L376.5644171779141,263.1660685954021L379.4171779141104,263.1660685954021L382.26993865030676,263.1660685954021L385.1226993865031,263.1660685954021L387.97546012269936,263.1660685954021L390.82822085889575,263.1660685954021L393.680981595092,263.1660685954021L396.53374233128835,263.1660685954021L399.3865030674846,263.1660685954021L402.23926380368096,263.1660685954021L405.0920245398773,263.1660685954021L407.94478527607356,263.1660685954021L410.79754601226995,263.1660685954021L413.6503067484662,263.1660685954021L416.50306748466255,263.1660685954021L419.3558282208589,263.1660685954021L422.2085889570552,263.1660685954021L425.0613496932515,263.1660685954021L427.9141104294479,263.1660685954021L430.76687116564415,263.1660685954021L433.6196319018405,263.1660685954021L436.4723926380368,263.1660685954021L439.32515337423314,263.1660685954021L442.1779141104294,263.1660685954021L445.0306748466258,263.1660685954021L447.8834355828221,263.1660685954021L450.7361963190184,263.1660685954021L453.5889570552147,263.1660685954021L456.44171779141107,263.1660685954021L459.29447852760734,263.1660685954021L462.14723926380367,263.1660685954021L465,263.1660685954021L467.85276073619633,263.1660685954021L470.7055214723926,263.1660685954021L473.55828220858893,263.1660685954021L476.4110429447853,263.1660685954021L479.2638036809816,263.1660685954021L482.1165644171779,263.1660685954021L484.9693251533742,263.1660685954021L487.82208588957053,263.1660685954021L490.6748466257668,263.1660685954021L493.52760736196313,263.1660685954021L496.3803680981595,263.1660685954021L499.23312883435585,263.1660685954021L502.0858895705521,263.1660685954021L504.93865030674846,263.1660685954021L507.79141104294473,263.1660685954021L510.64417177914106,263.1660685954021L513.4969325153374,263.1660685954021L516.3496932515337,263.1660685954021L519.2024539877301,263.1660685954021L522.0552147239264,263.1660685954021L524.9079754601227,263.1660685954021L527.7607361963189,263.1660685954021L530.6134969325153,263.1660685954021L533.4662576687117,263.1660685954021L536.319018404908,263.1660685954021L539.1717791411043,263.1660685954021L542.0245398773005,263.1660685954021L544.8773006134969,263.1660685954021L547.7300613496932,263.1660685954021L550.5828220858896,263.1660685954021L553.4355828220858,263.1660685954021L556.2883435582822,263.1660685954021L559.1411042944785,263.1660685954021L561.9938650306748,263.1660685954021L564.846625766871,263.1660685954021L567.6993865030676,263.1660685954021L570.5521472392638,263.1660685954021L573.4049079754601,263.1660685954021L576.2576687116564,263.1660685954021L579.1104294478528,263.1660685954021L581.963190184049,263.1660685954021L584.8159509202454,263.1660685954021L587.6687116564417,263.1660685954021L590.5214723926381,263.1660685954021L593.3742331288344,263.1660685954021L596.2269938650306,263.1660685954021L599.0797546012269,263.1660685954021L601.9325153374233,263.1660685954021L604.7852760736197,263.1660685954021L607.638036809816,263.1660685954021L610.4907975460122,263.1660685954021L613.3435582822085,263.1660685954021L616.1963190184049,263.1660685954021L619.0490797546012,263.1660685954021L621.9018404907976,263.1660685954021L624.7546012269938,263.1660685954021L627.6073619631902,263.1660685954021L630.4601226993865,263.1660685954021L633.3128834355828,263.1660685954021L636.165644171779,263.1660685954021L639.0184049079755,263.1660685954021L641.8711656441718,263.1660685954021L644.7239263803681,263.1660685954021L647.5766871165644,263.1660685954021L650.4294478527607,263.1660685954021L653.282208588957,263.1660685954021L656.1349693251534,263.1660685954021L658.9877300613497,263.1660685954021L661.8404907975461,263.1660685954021L664.6932515337423,263.1660685954021L667.5460122699386,263.1660685954021L670.3987730061349,263.1660685954021L673.2515337423313,263.1660685954021L676.1042944785277,263.1660685954021L678.9570552147239,263.1660685954021L681.8098159509202,263.1660685954021L684.6625766871165,263.1660685954021L687.5153374233129,263.1660685954021L690.3680981595091,263.1660685954021L693.2208588957055,263.1660685954021L696.0736196319018,263.1660685954021L698.9263803680982,263.1660685954021L701.7791411042945,263.1660685954021L704.6319018404907,263.1660685954021L707.484662576687,263.1660685954021L710.3374233128835,263.1660685954021L713.1901840490798,263.1660685954021L716.0429447852761,263.1660685954021L718.8957055214723,263.1660685954021L721.7484662576687,263.1660685954021L724.601226993865,263.1660685954021L727.4539877300613,263.1660685954021L730.3067484662577,263.1660685954021L733.1595092024539,263.1660685954021L736.0122699386503,263.1660685954021L738.8650306748466,263.1660685954021L741.7177914110429,263.1660685954021L744.5705521472393,263.1660685954021L747.4233128834356,263.1660685954021L750.2760736196319,263.1660685954021L753.1288343558282,263.1660685954021L755.9815950920245,263.1660685954021L758.8343558282209,263.1660685954021L761.6871165644171,263.1660685954021L764.5398773006135,263.1660685954021L767.3926380368098,263.1660685954021L770.2453987730062,263.1660685954021L773.0981595092024,263.1660685954021L775.9509202453987,263.1660685954021L778.803680981595,263.1660685954021L781.6564417177915,263.1660685954021L784.5092024539878,263.1660685954021L787.361963190184,263.1660685954021L790.2147239263803,263.1660685954021L793.0674846625767,263.1660685954021L795.920245398773,263.1660685954021L798.7730061349693,263.1660685954021L801.6257668711656,263.1660685954021L804.4785276073619,263.1660685954021L807.3312883435583,263.1660685954021L810.1840490797546,263.1660685954021L813.0368098159508,263.1660685954021L815.8895705521471,263.1660685954021L818.7423312883436,263.1660685954021L821.5950920245399,263.1660685954021L824.4478527607362,263.1660685954021L827.3006134969324,263.1660685954021L830.1533742331288,263.1660685954021L833.0061349693251,263.1660685954021L835.8588957055215,263.1660685954021L838.7116564417178,263.1660685954021L841.5644171779142,263.1660685954021L844.4171779141104,263.1660685954021L847.2699386503067,263.1660685954021L850.122699386503,263.1660685954021L852.9754601226994,263.1660685954021L855.8282208588957,263.1660685954021L858.680981595092,263.1660685954021L861.5337423312883,263.1660685954021L864.3865030674847,263.1660685954021L867.239263803681,263.1660685954021L870.0920245398772,263.1660685954021L872.9447852760736,263.1660685954021L875.7975460122699,263.1660685954021L878.6503067484663,263.1660685954021L881.5030674846626,263.1660685954021L884.3558282208588,263.1660685954021L887.2085889570551,263.1660685954021L890.0613496932516,263.1660685954021L892.9141104294479,263.1660685954021L895.7668711656441,263.1660685954021L898.6196319018404,263.1660685954021L901.4723926380368,263.1660685954021L904.3251533742331,263.1660685954021L907.1779141104294,263.1660685954021L910.0306748466257,263.1660685954021L912.8834355828221,263.1660685954021L915.7361963190184,263.1660685954021L918.5889570552147,263.1660685954021L921.441717791411,263.1660685954021L924.2944785276073,263.1660685954021L927.1472392638037,263.1660685954021L930,263.1660685954021L930,263.1660685954021L927.1472392638037,263.1660685954021L924.2944785276073,263.1660685954021L921.441717791411,263.1660685954021L918.5889570552147,262.6681077167165L915.7361963190184,263.15418259452895L912.8834355828221,263.15731048949556L910.0306748466257,263.11351995996296L907.1779141104294,263.1660685954021L904.3251533742331,262.97526700243844L901.4723926380368,263.16419185842216L898.6196319018404,263.1629407004355L895.7668711656441,263.16106396345555L892.9141104294479,263.1072641700297L890.0613496932516,263.1660685954021L887.2085889570551,263.15480817352227L884.3558282208588,263.1591872264755L881.5030674846626,263.1660685954021L878.6503067484663,263.15480817352227L875.7975460122699,263.1604383844622L872.9447852760736,263.15856164748226L870.0920245398772,263.1660685954021L867.239263803681,261.8379643925761L864.3865030674847,262.7819630935014L861.5337423312883,263.1629407004355L858.680981595092,262.84577215082044L855.8282208588957,261.44635194275554L852.9754601226994,263.1560593315089L850.122699386503,263.1279082768094L847.2699386503067,263.02844121687093L844.4171779141104,263.15981280546885L841.5644171779142,263.16356627942884L838.7116564417178,263.0146784790178L835.8588957055215,262.89394173330635L833.0061349693251,262.2814998988425L830.1533742331288,256.8377114989405L827.3006134969324,263.152305857549L824.4478527607362,262.3740855898544L821.5950920245399,263.1654430164088L818.7423312883436,263.1660685954021L815.8895705521471,263.1660685954021L813.0368098159508,261.80605986391663L810.1840490797546,263.16356627942884L807.3312883435583,173.3297972591654L804.4785276073619,0L801.6257668711656,253.67290737171638L798.7730061349693,262.7150261412158L795.920245398773,233.17706281345502L793.0674846625767,263.02656447989096L790.2147239263803,262.7006378243693L787.361963190184,263.1591872264755L784.5092024539878,263.13416406674264L781.6564417177915,263.16231512144213L778.803680981595,262.7638213026951L775.9509202453987,262.81386762216096L773.0981595092024,263.1654430164088L770.2453987730062,263.16168954244887L767.3926380368098,263.1654430164088L764.5398773006135,263.0171807949911L761.6871165644171,263.11351995996296L758.8343558282209,263.15981280546885L755.9815950920245,263.1660685954021L753.1288343558282,263.1654430164088L750.2760736196319,262.45103180603326L747.4233128834356,263.132912908756L744.5705521472393,258.89273849200856L741.7177914110429,254.93470020125008L738.8650306748466,262.3565693780414L736.0122699386503,263.0090482680779L733.1595092024539,262.1188493605784L730.3067484662577,263.12540596083613L727.4539877300613,263.0728573253969L724.601226993865,263.1660685954021L721.7484662576687,258.91088028281496L718.8957055214723,231.68818480934485L716.0429447852761,243.23637302609862L713.1901840490798,262.9158369980727L710.3374233128835,263.1648174374155L707.484662576687,239.78442814093896L704.6319018404907,211.07160350537197L701.7791411042945,248.77837732795248L698.9263803680982,263.1473012256024L696.0736196319018,256.82144644511413L693.2208588957055,261.76164375539065L690.3680981595091,263.1473012256024L687.5153374233129,263.1660685954021L684.6625766871165,262.8438954138404L681.8098159509202,263.05846900855045L678.9570552147239,263.1660685954021L676.1042944785277,262.937732262839L673.2515337423313,263.07160616741027L670.3987730061349,262.6580984528233L667.5460122699386,263.1660685954021L664.6932515337423,263.08662006325005L661.8404907975461,262.893316154313L658.9877300613497,258.48798888332817L656.1349693251534,247.03113519959965L653.282208588957,261.39818236026963L650.4294478527607,262.22019315749685L647.5766871165644,260.2665099613472L644.7239263803681,260.1920660611417L641.8711656441718,247.90694579025268L639.0184049079755,263.0378249017708L636.165644171779,263.1660685954021L633.3128834355828,259.22492093746337L630.4601226993865,263.1660685954021L627.6073619631902,263.07723637835016L624.7546012269938,262.9139602610927L621.9018404907976,263.02093426895107L619.0490797546012,262.682496033563L616.1963190184049,263.04971090264394L613.3435582822085,263.1654430164088L610.4907975460122,263.1660685954021L607.638036809816,263.1654430164088L604.7852760736197,255.55527456262712L601.9325153374233,263.1660685954021L599.0797546012269,263.0578434295571L596.2269938650306,263.1498035415757L593.3742331288344,261.73349270069104L590.5214723926381,261.1698460277065L587.6687116564417,262.86141162565355L584.8159509202454,263.1247803818428L581.963190184049,263.04720858667065L579.1104294478528,262.4422737001267L576.2576687116564,263.1204013288895L573.4049079754601,263.1660685954021L570.5521472392638,263.02155984794433L567.6993865030676,259.28247420484917L564.846625766871,262.99090647727155L561.9938650306748,263.1660685954021L559.1411042944785,263.1660685954021L556.2883435582822,263.1660685954021L553.4355828220858,261.8385899715694L550.5828220858896,263.129159434796L547.7300613496932,263.14855238358905L544.8773006134969,263.1660685954021L542.0245398773005,263.0691038514369L539.1717791411043,262.0500356713128L536.319018404908,262.0187567216466L533.4662576687117,263.09850606412317L530.6134969325153,263.1654430164088L527.7607361963189,262.8920649963264L524.9079754601227,261.04723254501505L522.0552147239264,263.1660685954021L519.2024539877301,263.1660685954021L516.3496932515337,263.1660685954021L513.4969325153374,263.1660685954021L510.64417177914106,263.1047618540564L507.79141104294473,263.0397016387508L504.93865030674846,263.1660685954021L502.0858895705521,263.0146784790178L499.23312883435585,263.13478964573596L496.3803680981595,262.87517436350663L493.52760736196313,263.0578434295571L490.6748466257668,262.2189419995102L487.82208588957053,263.00779711009125L484.9693251533742,262.81136530618767L482.1165644171779,262.5817778156379L479.2638036809816,262.34280664018826L476.4110429447853,263.1085153280163L473.55828220858893,263.1085153280163L470.7055214723926,262.47105033381956L467.85276073619633,263.0178063739844L465,263.0490853236506L462.14723926380367,262.5135897053656L459.29447852760734,253.74797685091522L456.44171779141107,242.8854232108441L453.5889570552147,227.74766273039944L450.7361963190184,263.15105469956234L447.8834355828221,263.1629407004355L445.0306748466258,262.4979502305325L442.1779141104294,262.77946077752813L439.32515337423314,262.69876108738936L436.4723926380368,262.20142578769713L433.6196319018405,263.11602227593625L430.76687116564415,262.83326057095394L427.9141104294479,262.69563319242275L425.0613496932515,256.57496832174456L422.2085889570552,262.5924126585244L419.3558282208589,262.5373617071119L416.50306748466255,262.51046181039897L413.6503067484662,263.0121761630445L410.79754601226995,262.208932735617L407.94478527607356,262.6249427661772L405.0920245398773,262.29526263669567L402.23926380368096,262.4103691714672L399.3865030674846,261.9887289299671L396.53374233128835,262.8057350952477L393.680981595092,262.808237411221L390.82822085889575,262.8576581516936L387.97546012269936,262.54674539201176L385.1226993865031,263.03907605975746L382.26993865030676,262.9583763696187L379.4171779141104,263.0278156378776L376.5644171779141,262.9533717376721L373.7116564417178,261.42445667798916L370.85889570552143,260.8714448478911L368.00613496932516,262.42538306730694L365.15337423312883,263.0935014321766L362.3006134969325,262.5905359215444L359.44785276073617,262.98152279237166L356.5950920245399,263.1498035415757L353.7423312883435,263.1654430164088L350.88957055214723,263.02281100593103L348.0368098159509,262.9859018453249L345.1840490797546,262.7732049875949L342.33128834355824,263.0565922715705L339.47852760736197,263.1660685954021L336.62576687116564,263.1604383844622L333.7730061349693,263.1279082768094L330.92024539877303,263.16356627942884L328.0674846625767,263.01342732103114L325.2147239263804,261.928673346608L322.36196319018404,261.3938033073164L319.50920245398777,261.51328889504117L316.6564417177914,261.9030246078818L313.8036809815951,262.8151187801476L310.9509202453988,262.9158369980727L308.09815950920245,262.038775249433L305.2453987730061,261.14044381502026L302.39263803680984,261.843594603516L299.53987730061345,263.0572178505638L296.6871165644172,262.93085089391246L293.83435582822085,262.12072609755836L290.9815950920245,262.27336737192934L288.1288343558282,261.886133975062L285.2760736196319,259.1898885138373L282.4233128834355,263.1660685954021L279.57055214723925,261.16296465877997L276.7177914110429,262.1582608371578L273.8650306748466,258.9759404981206L271.01226993865026,259.81546750716086L268.159509202454,260.86956811091113L265.30674846625766,262.81324204316763L262.4539877300613,262.12698188749164L259.60122699386505,262.08757041091224L256.7484662576687,261.95557324332094L253.89570552147237,262.2308280003833L251.04294478527606,262.29713937367563L248.19018404907976,260.4523069223643L245.3374233128834,260.2464914335609L242.4846625766871,263.02281100593103L239.6319018404908,259.421352741367L236.77914110429447,260.64498525230795L233.92638036809817,263.1660685954021L231.07361963190183,263.1660685954021L228.22085889570553,262.7275377210823L225.3680981595092,261.90239902888845L222.5153374233129,260.8601844260113L219.66257668711657,261.7572647024374L216.80981595092024,258.90087101892175L213.95705521472394,260.32468880772626L211.1042944785276,256.5780962167112L208.25153374233128,259.4188504253937L205.39877300613497,224.11617667415587L202.54601226993864,263.1660685954021L199.6932515337423,263.1660685954021L196.840490797546,263.1660685954021L193.98773006134968,263.1660685954021L191.13496932515338,263.1660685954021L188.28220858895705,263.1660685954021L185.42944785276072,263.1660685954021L182.57668711656441,263.1660685954021L179.72392638036808,263.1660685954021L176.87116564417175,263.1660685954021L174.01840490797545,263.1660685954021L171.16564417177912,263.1660685954021L168.31288343558282,263.1660685954021L165.46012269938652,263.1604383844622L162.6073619631902,263.1660685954021L159.75460122699388,263.1660685954021L156.90184049079755,263.1529314365423L154.04907975460122,263.1660685954021L151.19631901840492,263.1660685954021L148.3435582822086,263.1660685954021L145.49079754601226,263.1660685954021L142.63803680981596,263.1660685954021L139.78527607361963,263.1322873297627L136.9325153374233,263.1648174374155L134.079754601227,263.1660685954021L131.22699386503066,263.1660685954021L128.37423312883436,263.1660685954021L125.52147239263803,263.1660685954021L122.6687116564417,263.1654430164088L119.8159509202454,263.15668491050224L116.96319018404908,263.1660685954021L114.11042944785277,263.1660685954021L111.25766871165645,263.1660685954021L108.40490797546012,263.1660685954021L105.5521472392638,263.1660685954021L102.69938650306749,263.1660685954021L99.84662576687116,263.1660685954021L96.99386503067484,263.1660685954021L94.14110429447852,263.1660685954021L91.28834355828221,263.1660685954021L88.43558282208588,263.1660685954021L85.58282208588956,263.1660685954021L82.73006134969326,263.1660685954021L79.87730061349694,263.1660685954021L77.02453987730061,263.1660685954021L74.1717791411043,263.1660685954021L71.31901840490798,263.1660685954021L68.46625766871165,263.1660685954021L65.61349693251533,263.0002901621714L62.760736196319016,263.1660685954021L59.9079754601227,263.1660685954021L57.05521472392638,261.93492913654126L54.20245398773006,262.76569803967504L51.34969325153374,263.1210269078828L48.49693251533742,261.845471340496L45.644171779141104,256.36289704300793L42.79141104294478,260.389749023032L39.93865030674847,261.42320552000257L37.08588957055215,261.9881033509738L34.233128834355824,256.8427161308871L31.380368098159508,262.0775611470191L28.52760736196319,262.595540553491L25.67484662576687,261.3687801475834L22.822085889570552,261.1886133975062L19.969325153374236,262.168270101051L17.116564417177912,259.6465611789635L14.263803680981596,260.8407914772183L11.411042944785276,258.070102115788L8.558282208588956,258.1489250689468L5.705521472392638,255.6322207788059L2.852760736196319,248.10212643616964L0,240.82664274381608Z" style="height:auto;overflow-x:visible;overflow-y:visible;width:auto;perspective-origin:0px 0px;transform-origin:0px 0px;fill:rgb(108, 198, 68);"/><path class="deletion" d="M0,263.1660685954021L2.852760736196319,263.1660685954021L5.705521472392638,263.1660685954021L8.558282208588956,263.1660685954021L11.411042944785276,263.1660685954021L14.263803680981596,263.1660685954021L17.116564417177912,263.1660685954021L19.969325153374236,263.1660685954021L22.822085889570552,263.1660685954021L25.67484662576687,263.1660685954021L28.52760736196319,263.1660685954021L31.380368098159508,263.1660685954021L34.233128834355824,263.1660685954021L37.08588957055215,263.1660685954021L39.93865030674847,263.1660685954021L42.79141104294478,263.1660685954021L45.644171779141104,263.1660685954021L48.49693251533742,263.1660685954021L51.34969325153374,263.1660685954021L54.20245398773006,263.1660685954021L57.05521472392638,263.1660685954021L59.9079754601227,263.1660685954021L62.760736196319016,263.1660685954021L65.61349693251533,263.1660685954021L68.46625766871165,263.1660685954021L71.31901840490798,263.1660685954021L74.1717791411043,263.1660685954021L77.02453987730061,263.1660685954021L79.87730061349694,263.1660685954021L82.73006134969326,263.1660685954021L85.58282208588956,263.1660685954021L88.43558282208588,263.1660685954021L91.28834355828221,263.1660685954021L94.14110429447852,263.1660685954021L96.99386503067484,263.1660685954021L99.84662576687116,263.1660685954021L102.69938650306749,263.1660685954021L105.5521472392638,263.1660685954021L108.40490797546012,263.1660685954021L111.25766871165645,263.1660685954021L114.11042944785277,263.1660685954021L116.96319018404908,263.1660685954021L119.8159509202454,263.1660685954021L122.6687116564417,263.1660685954021L125.52147239263803,263.1660685954021L128.37423312883436,263.1660685954021L131.22699386503066,263.1660685954021L134.079754601227,263.1660685954021L136.9325153374233,263.1660685954021L139.78527607361963,263.1660685954021L142.63803680981596,263.1660685954021L145.49079754601226,263.1660685954021L148.3435582822086,263.1660685954021L151.19631901840492,263.1660685954021L154.04907975460122,263.1660685954021L156.90184049079755,263.1660685954021L159.75460122699388,263.1660685954021L162.6073619631902,263.1660685954021L165.46012269938652,263.1660685954021L168.31288343558282,263.1660685954021L171.16564417177912,263.1660685954021L174.01840490797545,263.1660685954021L176.87116564417175,263.1660685954021L179.72392638036808,263.1660685954021L182.57668711656441,263.1660685954021L185.42944785276072,263.1660685954021L188.28220858895705,263.1660685954021L191.13496932515338,263.1660685954021L193.98773006134968,263.1660685954021L196.840490797546,263.1660685954021L199.6932515337423,263.1660685954021L202.54601226993864,263.1660685954021L205.39877300613497,263.1660685954021L208.25153374233128,263.1660685954021L211.1042944785276,263.1660685954021L213.95705521472394,263.1660685954021L216.80981595092024,263.1660685954021L219.66257668711657,263.1660685954021L222.5153374233129,263.1660685954021L225.3680981595092,263.1660685954021L228.22085889570553,263.1660685954021L231.07361963190183,263.1660685954021L233.92638036809817,263.1660685954021L236.77914110429447,263.1660685954021L239.6319018404908,263.1660685954021L242.4846625766871,263.1660685954021L245.3374233128834,263.1660685954021L248.19018404907976,263.1660685954021L251.04294478527606,263.1660685954021L253.89570552147237,263.1660685954021L256.7484662576687,263.1660685954021L259.60122699386505,263.1660685954021L262.4539877300613,263.1660685954021L265.30674846625766,263.1660685954021L268.159509202454,263.1660685954021L271.01226993865026,263.1660685954021L273.8650306748466,263.1660685954021L276.7177914110429,263.1660685954021L279.57055214723925,263.1660685954021L282.4233128834355,263.1660685954021L285.2760736196319,263.1660685954021L288.1288343558282,263.1660685954021L290.9815950920245,263.1660685954021L293.83435582822085,263.1660685954021L296.6871165644172,263.1660685954021L299.53987730061345,263.1660685954021L302.39263803680984,263.1660685954021L305.2453987730061,263.1660685954021L308.09815950920245,263.1660685954021L310.9509202453988,263.1660685954021L313.8036809815951,263.1660685954021L316.6564417177914,263.1660685954021L319.50920245398777,263.1660685954021L322.36196319018404,263.1660685954021L325.2147239263804,263.1660685954021L328.0674846625767,263.1660685954021L330.92024539877303,263.1660685954021L333.7730061349693,263.1660685954021L336.62576687116564,263.1660685954021L339.47852760736197,263.1660685954021L342.33128834355824,263.1660685954021L345.1840490797546,263.1660685954021L348.0368098159509,263.1660685954021L350.88957055214723,263.1660685954021L353.7423312883435,263.1660685954021L356.5950920245399,263.1660685954021L359.44785276073617,263.1660685954021L362.3006134969325,263.1660685954021L365.15337423312883,263.1660685954021L368.00613496932516,263.1660685954021L370.85889570552143,263.1660685954021L373.7116564417178,263.1660685954021L376.5644171779141,263.1660685954021L379.4171779141104,263.1660685954021L382.26993865030676,263.1660685954021L385.1226993865031,263.1660685954021L387.97546012269936,263.1660685954021L390.82822085889575,263.1660685954021L393.680981595092,263.1660685954021L396.53374233128835,263.1660685954021L399.3865030674846,263.1660685954021L402.23926380368096,263.1660685954021L405.0920245398773,263.1660685954021L407.94478527607356,263.1660685954021L410.79754601226995,263.1660685954021L413.6503067484662,263.1660685954021L416.50306748466255,263.1660685954021L419.3558282208589,263.1660685954021L422.2085889570552,263.1660685954021L425.0613496932515,263.1660685954021L427.9141104294479,263.1660685954021L430.76687116564415,263.1660685954021L433.6196319018405,263.1660685954021L436.4723926380368,263.1660685954021L439.32515337423314,263.1660685954021L442.1779141104294,263.1660685954021L445.0306748466258,263.1660685954021L447.8834355828221,263.1660685954021L450.7361963190184,263.1660685954021L453.5889570552147,263.1660685954021L456.44171779141107,263.1660685954021L459.29447852760734,263.1660685954021L462.14723926380367,263.1660685954021L465,263.1660685954021L467.85276073619633,263.1660685954021L470.7055214723926,263.1660685954021L473.55828220858893,263.1660685954021L476.4110429447853,263.1660685954021L479.2638036809816,263.1660685954021L482.1165644171779,263.1660685954021L484.9693251533742,263.1660685954021L487.82208588957053,263.1660685954021L490.6748466257668,263.1660685954021L493.52760736196313,263.1660685954021L496.3803680981595,263.1660685954021L499.23312883435585,263.1660685954021L502.0858895705521,263.1660685954021L504.93865030674846,263.1660685954021L507.79141104294473,263.1660685954021L510.64417177914106,263.1660685954021L513.4969325153374,263.1660685954021L516.3496932515337,263.1660685954021L519.2024539877301,263.1660685954021L522.0552147239264,263.1660685954021L524.9079754601227,263.1660685954021L527.7607361963189,263.1660685954021L530.6134969325153,263.1660685954021L533.4662576687117,263.1660685954021L536.319018404908,263.1660685954021L539.1717791411043,263.1660685954021L542.0245398773005,263.1660685954021L544.8773006134969,263.1660685954021L547.7300613496932,263.1660685954021L550.5828220858896,263.1660685954021L553.4355828220858,263.1660685954021L556.2883435582822,263.1660685954021L559.1411042944785,263.1660685954021L561.9938650306748,263.1660685954021L564.846625766871,263.1660685954021L567.6993865030676,263.1660685954021L570.5521472392638,263.1660685954021L573.4049079754601,263.1660685954021L576.2576687116564,263.1660685954021L579.1104294478528,263.1660685954021L581.963190184049,263.1660685954021L584.8159509202454,263.1660685954021L587.6687116564417,263.1660685954021L590.5214723926381,263.1660685954021L593.3742331288344,263.1660685954021L596.2269938650306,263.1660685954021L599.0797546012269,263.1660685954021L601.9325153374233,263.1660685954021L604.7852760736197,263.1660685954021L607.638036809816,263.1660685954021L610.4907975460122,263.1660685954021L613.3435582822085,263.1660685954021L616.1963190184049,263.1660685954021L619.0490797546012,263.1660685954021L621.9018404907976,263.1660685954021L624.7546012269938,263.1660685954021L627.6073619631902,263.1660685954021L630.4601226993865,263.1660685954021L633.3128834355828,263.1660685954021L636.165644171779,263.1660685954021L639.0184049079755,263.1660685954021L641.8711656441718,263.1660685954021L644.7239263803681,263.1660685954021L647.5766871165644,263.1660685954021L650.4294478527607,263.1660685954021L653.282208588957,263.1660685954021L656.1349693251534,263.1660685954021L658.9877300613497,263.1660685954021L661.8404907975461,263.1660685954021L664.6932515337423,263.1660685954021L667.5460122699386,263.1660685954021L670.3987730061349,263.1660685954021L673.2515337423313,263.1660685954021L676.1042944785277,263.1660685954021L678.9570552147239,263.1660685954021L681.8098159509202,263.1660685954021L684.6625766871165,263.1660685954021L687.5153374233129,263.1660685954021L690.3680981595091,263.1660685954021L693.2208588957055,263.1660685954021L696.0736196319018,263.1660685954021L698.9263803680982,263.1660685954021L701.7791411042945,263.1660685954021L704.6319018404907,263.1660685954021L707.484662576687,263.1660685954021L710.3374233128835,263.1660685954021L713.1901840490798,263.1660685954021L716.0429447852761,263.1660685954021L718.8957055214723,263.1660685954021L721.7484662576687,263.1660685954021L724.601226993865,263.1660685954021L727.4539877300613,263.1660685954021L730.3067484662577,263.1660685954021L733.1595092024539,263.1660685954021L736.0122699386503,263.1660685954021L738.8650306748466,263.1660685954021L741.7177914110429,263.1660685954021L744.5705521472393,263.1660685954021L747.4233128834356,263.1660685954021L750.2760736196319,263.1660685954021L753.1288343558282,263.1660685954021L755.9815950920245,263.1660685954021L758.8343558282209,263.1660685954021L761.6871165644171,263.1660685954021L764.5398773006135,263.1660685954021L767.3926380368098,263.1660685954021L770.2453987730062,263.1660685954021L773.0981595092024,263.1660685954021L775.9509202453987,263.1660685954021L778.803680981595,263.1660685954021L781.6564417177915,263.1660685954021L784.5092024539878,263.1660685954021L787.361963190184,263.1660685954021L790.2147239263803,263.1660685954021L793.0674846625767,263.1660685954021L795.920245398773,263.1660685954021L798.7730061349693,263.1660685954021L801.6257668711656,263.1660685954021L804.4785276073619,263.1660685954021L807.3312883435583,263.1660685954021L810.1840490797546,263.1660685954021L813.0368098159508,263.1660685954021L815.8895705521471,263.1660685954021L818.7423312883436,263.1660685954021L821.5950920245399,263.1660685954021L824.4478527607362,263.1660685954021L827.3006134969324,263.1660685954021L830.1533742331288,263.1660685954021L833.0061349693251,263.1660685954021L835.8588957055215,263.1660685954021L838.7116564417178,263.1660685954021L841.5644171779142,263.1660685954021L844.4171779141104,263.1660685954021L847.2699386503067,263.1660685954021L850.122699386503,263.1660685954021L852.9754601226994,263.1660685954021L855.8282208588957,263.1660685954021L858.680981595092,263.1660685954021L861.5337423312883,263.1660685954021L864.3865030674847,263.1660685954021L867.239263803681,263.1660685954021L870.0920245398772,263.1660685954021L872.9447852760736,263.1660685954021L875.7975460122699,263.1660685954021L878.6503067484663,263.1660685954021L881.5030674846626,263.1660685954021L884.3558282208588,263.1660685954021L887.2085889570551,263.1660685954021L890.0613496932516,263.1660685954021L892.9141104294479,263.1660685954021L895.7668711656441,263.1660685954021L898.6196319018404,263.1660685954021L901.4723926380368,263.1660685954021L904.3251533742331,263.1660685954021L907.1779141104294,263.1660685954021L910.0306748466257,263.1660685954021L912.8834355828221,263.1660685954021L915.7361963190184,263.1660685954021L918.5889570552147,263.1660685954021L921.441717791411,263.1660685954021L924.2944785276073,263.1660685954021L927.1472392638037,263.1660685954021L930,263.1660685954021L930,263.1660685954021L927.1472392638037,263.1660685954021L924.2944785276073,263.1660685954021L921.441717791411,263.1660685954021L918.5889570552147,263.2630333393673L915.7361963190184,263.16731975338877L912.8834355828221,263.16919649036873L910.0306748466257,263.22111954681463L907.1779141104294,263.1660685954021L904.3251533742331,263.1729499643287L901.4723926380368,263.16794533238215L898.6196319018404,263.16919649036873L895.7668711656441,263.16731975338877L892.9141104294479,263.22111954681463L890.0613496932516,263.1660685954021L887.2085889570551,263.16731975338877L884.3558282208588,263.16982206936206L881.5030674846626,263.1660685954021L878.6503067484663,263.1942196501017L875.7975460122699,263.171698806342L872.9447852760736,263.16919649036873L870.0920245398772,263.1660685954021L867.239263803681,263.1842103862085L864.3865030674847,263.1779545962753L861.5337423312883,263.1685709113754L858.680981595092,263.16731975338877L855.8282208588957,263.33184702863286L852.9754601226994,263.1742011223153L850.122699386503,263.1742011223153L847.2699386503067,263.19109175513506L844.4171779141104,263.1723243853354L841.5644171779142,263.16919649036873L838.7116564417178,263.2899332360802L835.8588957055215,263.32246334373303L833.0061349693251,265.8948441642797L830.1533742331288,263.31745871178646L827.3006134969324,263.1742011223153L824.4478527607362,263.95617486396986L821.5950920245399,263.1660685954021L818.7423312883436,263.1660685954021L815.8895705521471,263.1660685954021L813.0368098159508,265.19044221779734L810.1840490797546,263.17357554332204L807.3312883435583,382.68731432283073L804.4785276073619,470L801.6257668711656,267.354945534697L798.7730061349693,263.2111102829214L795.920245398773,291.7750471180774L793.0674846625767,263.28680534111356L790.2147239263803,263.46884882817074L787.361963190184,263.1685709113754L784.5092024539878,263.16731975338877L781.6564417177915,263.16919649036873L778.803680981595,263.7441035852331L775.9509202453987,263.42193040367147L773.0981595092024,263.1660685954021L770.2453987730062,263.16982206936206L767.3926380368098,263.16669417439545L764.5398773006135,263.25052175950077L761.6871165644171,263.21861723084135L758.8343558282209,263.1660685954021L755.9815950920245,263.1660685954021L753.1288343558282,263.1660685954021L750.2760736196319,263.8942425436308L747.4233128834356,263.17607785929533L744.5705521472393,266.8463498131249L741.7177914110429,273.68580494713194L738.8650306748466,263.9330284412169L736.0122699386503,263.39503050695856L733.1595092024539,263.8216753804053L730.3067484662577,263.17357554332204L727.4539877300613,263.3812677691054L724.601226993865,263.1660685954021L721.7484662576687,266.883258973731L718.8957055214723,297.16691246153357L716.0429447852761,264.58863522622L713.1901840490798,263.3274679756796L710.3374233128835,263.16731975338877L707.484662576687,281.1902505510419L704.6319018404907,310.8451971505542L701.7791411042945,268.0762381139991L698.9263803680982,263.1685709113754L696.0736196319018,267.77283230223713L693.2208588957055,263.7484826381864L690.3680981595091,263.16669417439545L687.5153374233129,263.1660685954021L684.6625766871165,263.1979731240616L681.8098159509202,263.1842103862085L678.9570552147239,263.1660685954021L676.1042944785277,263.2943122890334L673.2515337423313,263.1804569122486L670.3987730061349,263.6815456859008L667.5460122699386,263.1660685954021L664.6932515337423,263.19984986104157L661.8404907975461,263.3193354487664L658.9877300613497,265.8329118439407L656.1349693251534,263.33872839755946L653.282208588957,263.3637515572924L650.4294478527607,263.37313524219223L647.5766871165644,264.5310819588342L644.7239263803681,263.1979731240616L641.8711656441718,263.32246334373303L639.0184049079755,263.1979731240616L636.165644171779,263.1660685954021L633.3128834355828,266.30209608893335L630.4601226993865,263.1660685954021L627.6073619631902,263.20673122996817L624.7546012269938,263.2674123923206L621.9018404907976,263.2079823879548L619.0490797546012,263.28680534111356L616.1963190184049,263.20923354594146L613.3435582822085,263.16669417439545L610.4907975460122,263.1660685954021L607.638036809816,263.1660685954021L604.7852760736197,265.66963572668317L601.9325153374233,263.1660685954021L599.0797546012269,263.22987765272114L596.2269938650306,263.17607785929533L593.3742331288344,263.60397389072864L590.5214723926381,263.8197986434253L587.6687116564417,263.2136125988947L584.8159509202454,263.1829592282219L581.963190184049,263.2786728142004L579.1104294478528,263.37313524219223L576.2576687116564,263.19922428204825L573.4049079754601,263.1660685954021L570.5521472392638,263.2398869166143L567.6993865030676,266.75501528009966L564.846625766871,263.31745871178646L561.9938650306748,263.1660685954021L559.1411042944785,263.1660685954021L556.2883435582822,263.1660685954021L553.4355828220858,263.23300554768775L550.5828220858896,263.17044764835543L547.7300613496932,263.1660685954021L544.8773006134969,263.1660685954021L542.0245398773005,263.258654286414L539.1717791411043,263.4801092500506L536.319018404908,263.65527136818116L533.4662576687117,263.20610565097485L530.6134969325153,263.16669417439545L527.7607361963189,263.42130482467815L524.9079754601227,264.2770968875449L522.0552147239264,263.1660685954021L519.2024539877301,263.1660685954021L516.3496932515337,263.1660685954021L513.4969325153374,263.1660685954021L510.64417177914106,263.34435860849936L507.79141104294473,268.708072897256L504.93865030674846,263.1660685954021L502.0858895705521,263.1923429131217L499.23312883435585,263.21548933587474L496.3803680981595,263.2705402872872L493.52760736196313,263.194845229095L490.6748466257668,263.4081676658184L487.82208588957053,263.2192428098346L484.9693251533742,263.2236218627879L482.1165644171779,263.60397389072864L479.2638036809816,263.57519725703577L476.4110429447853,263.20548007198147L473.55828220858893,263.219868388828L470.7055214723926,263.4031630338718L467.85276073619633,263.20360333500156L465,263.18796386016845L462.14723926380367,263.3631259782991L459.29447852760734,264.89266661697525L456.44171779141107,281.4874005728706L453.5889570552147,281.37417077507905L450.7361963190184,263.16982206936206L447.8834355828221,263.16669417439545L445.0306748466258,263.2680379713139L442.1779141104294,263.43631872051793L439.32515337423314,264.0055956044424L436.4723926380368,263.63775515636814L433.6196319018405,263.1804569122486L430.76687116564415,263.3212121857464L427.9141104294479,263.4062909288384L425.0613496932515,268.4615947738865L422.2085889570552,263.75035937516634L419.3558282208589,263.540790412403L416.50306748466255,263.2742937612471L413.6503067484662,263.2286264947345L410.79754601226995,265.7778608925282L407.94478527607356,263.5414159913963L405.0920245398773,263.8892379116842L402.23926380368096,263.64964115724126L399.3865030674846,263.54454388636293L396.53374233128835,263.836689276245L393.680981595092,263.34248187151934L390.82822085889575,263.19984986104157L387.97546012269936,263.9230191773237L385.1226993865031,263.27554491923377L382.26993865030676,263.19359407110835L379.4171779141104,263.17607785929533L376.5644171779141,263.26991470829387L373.7116564417178,264.0950534004877L370.85889570552143,264.65056754655905L368.00613496932516,263.411295560785L365.15337423312883,263.2680379713139L362.3006134969325,264.074409293708L359.44785276073617,263.471351144144L356.5950920245399,263.17357554332204L353.7423312883435,263.16669417439545L350.88957055214723,263.3068238688999L348.0368098159509,263.31495639581317L345.1840490797546,263.3637515572924L342.33128834355824,263.18546154419516L339.47852760736197,263.1660685954021L336.62576687116564,263.17983133325527L333.7730061349693,263.1860871231885L330.92024539877303,263.16731975338877L328.0674846625767,263.2674123923206L325.2147239263804,264.314006048151L322.36196319018404,264.8745248261689L319.50920245398777,264.08504413659455L316.6564417177914,263.3637515572924L313.8036809815951,263.40691650783174L310.9509202453988,263.5251509375699L308.09815950920245,263.91989128235707L305.2453987730061,264.1144463492807L302.39263803680984,264.3703081575501L299.53987730061345,263.20360333500156L296.6871165644172,263.26491007634723L293.83435582822085,264.1757530906265L290.9815950920245,263.6502667362346L288.1288343558282,272.931982260177L285.2760736196319,264.5392144857475L282.4233128834355,263.1660685954021L279.57055214723925,263.8779774898044L276.7177914110429,263.71157347758026L273.8650306748466,265.4075181284806L271.01226993865026,265.1841864278641L268.159509202454,265.83541415991397L265.30674846625766,263.38877471702534L262.4539877300613,267.9229712606348L259.60122699386505,263.49262082991703L256.7484662576687,265.38437170572763L253.89570552147237,263.8892379116842L251.04294478527606,266.00494606710464L248.19018404907976,263.67091084301427L245.3374233128834,263.94303770511004L242.4846625766871,263.24739386453416L239.6319018404908,264.61115606997964L236.77914110429447,263.98307476068277L233.92638036809817,263.1660685954021L231.07361963190183,263.1660685954021L228.22085889570553,263.2767960772204L225.3680981595092,264.20077625035935L222.5153374233129,264.66245354743216L219.66257668711657,263.82042422241864L216.80981595092024,265.12475642349835L213.95705521472394,264.3033712052644L211.1042944785276,266.87575202581115L208.25153374233128,267.92735031358814L205.39877300613497,272.9857820536028L202.54601226993864,263.1660685954021L199.6932515337423,263.1660685954021L196.840490797546,263.1660685954021L193.98773006134968,263.1660685954021L191.13496932515338,263.1660685954021L188.28220858895705,263.1660685954021L185.42944785276072,263.1660685954021L182.57668711656441,263.1660685954021L179.72392638036808,263.1660685954021L176.87116564417175,263.1660685954021L174.01840490797545,263.1660685954021L171.16564417177912,308.21150958866184L168.31288343558282,263.1660685954021L165.46012269938652,263.171698806342L162.6073619631902,263.1660685954021L159.75460122699388,263.1660685954021L156.90184049079755,263.17983133325527L154.04907975460122,263.1660685954021L151.19631901840492,263.1660685954021L148.3435582822086,263.1660685954021L145.49079754601226,263.1660685954021L142.63803680981596,263.1660685954021L139.78527607361963,263.19922428204825L136.9325153374233,263.16731975338877L134.079754601227,263.1660685954021L131.22699386503066,263.1660685954021L128.37423312883436,263.1660685954021L125.52147239263803,263.1660685954021L122.6687116564417,263.16669417439545L119.8159509202454,263.175452280302L116.96319018404908,263.1660685954021L114.11042944785277,263.1660685954021L111.25766871165645,263.1660685954021L108.40490797546012,263.1660685954021L105.5521472392638,263.1660685954021L102.69938650306749,263.1660685954021L99.84662576687116,263.1660685954021L96.99386503067484,263.1660685954021L94.14110429447852,263.1660685954021L91.28834355828221,263.1660685954021L88.43558282208588,263.1660685954021L85.58282208588956,263.1660685954021L82.73006134969326,263.1660685954021L79.87730061349694,263.1660685954021L77.02453987730061,263.1660685954021L74.1717791411043,263.1660685954021L71.31901840490798,263.1660685954021L68.46625766871165,263.1660685954021L65.61349693251533,263.2223707048013L62.760736196319016,263.1660685954021L59.9079754601227,263.1660685954021L57.05521472392638,264.0581442398816L54.20245398773006,263.3349749235995L51.34969325153374,263.20735680896144L48.49693251533742,264.0606465558549L45.644171779141104,267.47755901738844L42.79141104294478,264.19452046042613L39.93865030674847,264.01810718430886L37.08588957055215,263.7015642136871L34.233128834355824,267.53135881081425L31.380368098159508,264.21579014619914L28.52760736196319,263.2655356553406L25.67484662576687,265.56829192976477L22.822085889570552,264.184511196533L19.969325153374236,263.7622453760396L17.116564417177912,264.7031161819982L14.263803680981596,264.6580744944789L11.411042944785276,265.12788431846496L8.558282208588956,267.0565443548817L5.705521472392638,267.21919489314575L2.852760736196319,274.95510472458557L0,264.39845921224963Z" style="height:auto;overflow-x:visible;overflow-y:visible;width:auto;perspective-origin:0px 0px;transform-origin:0px 0px;fill:rgb(189, 44, 0);"/></g></svg>